<?xml version="1.0" encoding="UTF-8"?><svg id="_07_Ingresso" xmlns="http://www.w3.org/2000/svg" viewBox="0 0 512 512"><g id="Icona_Bianco"><rect x="12" y="12" width="488.1" height="488.1" rx="73.4" ry="73.4" fill="#fff"/></g><g id="Bordo_Orientamento"><path d="M435,20c31.4,0,57,25.6,57,57v358c0,31.4-25.6,57-57,57H77c-31.4,0-57-25.6-57-57V77c0-31.4,25.6-57,57-57h358M435,0H77C34.5,0,0,34.5,0,77v358c0,42.5,34.5,77,77,77h358c42.5,0,77-34.5,77-77V77c0-42.5-34.5-77-77-77h0Z" fill="#0072b2"/></g><rect x="151.8" y="76.8" width="202.5" height="358.2" rx="12" ry="12" fill="#fff" stroke="#000" stroke-miterlimit="10" stroke-width="10"/><path d="M297.1,312l48.5-46.7c0,0,.1-.1.2-.2.1-.1.2-.2.4-.4,0-.1.2-.2.3-.3.1-.1.2-.2.3-.4,0-.1.2-.2.3-.4,0-.1.2-.2.3-.4,0-.1.2-.3.3-.4,0-.1.1-.2.2-.4,0-.1.2-.3.2-.4,0-.1.1-.2.2-.4,0-.2.1-.3.2-.5,0,0,0-.2.1-.2,0,0,0,0,0-.1,0-.2.1-.3.2-.5,0-.1,0-.3.1-.4,0-.2,0-.3.1-.5,0-.1,0-.3.1-.4,0-.2,0-.3,0-.5,0-.1,0-.3,0-.4,0-.1,0-.3,0-.4,0-.1,0-.3,0-.4,0-.2,0-.3,0-.5,0-.1,0-.3,0-.4,0-.2,0-.3,0-.5,0-.1,0-.3,0-.4,0-.2,0-.3,0-.5,0-.1,0-.3,0-.4,0-.2,0-.3,0-.5,0-.1,0-.3,0-.4,0-.1,0-.3-.1-.4,0-.1,0-.3-.1-.4,0-.1,0-.3-.1-.4,0-.2-.1-.3-.2-.5,0,0,0,0,0-.1,0,0,0-.2-.1-.2,0-.2-.1-.3-.2-.5,0-.1-.1-.3-.2-.4,0-.1-.1-.3-.2-.4,0-.1-.1-.3-.2-.4,0-.1-.2-.3-.3-.4,0-.1-.2-.3-.3-.4,0-.1-.2-.2-.3-.4,0-.1-.2-.2-.3-.4,0-.1-.2-.2-.3-.3-.1-.1-.2-.2-.3-.4,0,0-.1-.1-.2-.2l-48.5-46.7c-4.9-4.7-12.6-4.6-17.3.3-4.7,4.9-4.6,12.6.3,17.3l26.6,25.7H123.5c-6.8,0-12.3,5.5-12.3,12.3,0,6.8,5.5,12.3,12.3,12.3h183.2s-26.6,25.7-26.6,25.7c-4.9,4.7-5,12.5-.3,17.3,4.7,4.9,12.5,5,17.3.3Z"/></svg>