<?xml version="1.0" encoding="UTF-8"?><svg xmlns="http://www.w3.org/2000/svg" viewBox="0 0 512 512"><g id="_01_Inizio_percorso"><rect x="424.7" y="193.1" width="40" height="120" rx="8.8" ry="8.8" fill="#cc3d3d"/><g id="Icona_Bianco"><rect x="12" y="12" width="488.1" height="488.1" rx="73.4" ry="73.4" fill="#fff"/></g></g><g id="_02_Fine_percorso"><g id="Bordo_Orientamento"><path d="M435,20c31.4,0,57,25.6,57,57v358c0,31.4-25.6,57-57,57H77c-31.4,0-57-25.6-57-57V77c0-31.4,25.6-57,57-57h358M435,0H77C34.5,0,0,34.5,0,77v358C0,477.5,34.5,512,77,512h358c42.5,0,77-34.5,77-77V77C512,34.5,477.5,0,435,0h0Z" fill="#0072b2"/></g><path d="M323.3,372.5v-107.9h67.3l-22.5,22.5c-3.9,3.9-3.9,10.2,0,14.1,3.9,3.9,10.2,3.9,14.1,0l39.6-39.6s0,0,0,0c.3-.3.6-.7.9-1,0,0,.1-.2.2-.2.5-.7.9-1.5,1.2-2.3,0,0,0-.2,0-.2.1-.4.3-.8.3-1.2,0,0,0,0,0,0,0-.4.1-.9.2-1.3,0-.1,0-.2,0-.3,0-.4,0-.8,0-1.3,0,0,0,0,0,0,0-.4-.1-.9-.2-1.3,0,0,0-.2,0-.3-.1-.4-.3-.9-.4-1.3,0,0,0,0,0,0-.1-.2-.2-.5-.3-.7,0-.1-.1-.2-.2-.3,0-.2-.2-.3-.3-.5,0,0-.1-.2-.2-.3-.1-.2-.3-.4-.4-.5,0,0,0-.1-.1-.2-.2-.2-.4-.5-.6-.7,0,0,0,0,0,0l-40.4-40.4c-3.9-3.9-10.2-3.9-14.1,0s-2.9,4.5-2.9,7.1,1,5.1,2.9,7.1l23.3,23.3h-77.3c-5.5,0-10,4.5-10,10v107.9h-77.2v-223c0-5.5-4.5-10-10-10h-118.8c-5.5,0-10,4.5-10,10s4.5,10,10,10h108.8v223c0,5.5,4.5,10,10,10h97.2c5.5,0,10-4.5,10-10Z"/></g></svg>