<?xml version="1.0" encoding="UTF-8"?>
<svg id="Layer_1" xmlns="http://www.w3.org/2000/svg" version="1.1" viewBox="0 0 80 80">
  <!-- Generator: Adobe Illustrator 29.1.0, SVG Export Plug-In . SVG Version: 2.1.0 Build 142)  -->
  <defs>
    <style>
      .st0, .st1 {
        stroke-width: 2px;
      }

      .st0, .st1, .st2, .st3, .st4, .st5, .st6 {
        stroke: #fff;
        stroke-linecap: round;
      }

      .st0, .st1, .st4, .st5, .st6 {
        stroke-linejoin: round;
      }

      .st0, .st7, .st8 {
        fill: #fff;
      }

      .st1, .st2, .st3, .st9, .st4, .st5, .st6 {
        fill: none;
      }

      .st2 {
        stroke-width: 2.6px;
      }

      .st2, .st7, .st3, .st4, .st5, .st6 {
        display: none;
      }

      .st3, .st5 {
        stroke-width: 3.4px;
      }

      .st9 {
        stroke: #06b3ff;
        stroke-miterlimit: 10;
      }

      .st10 {
        fill: #0072b2;
      }

      .st4 {
        stroke-width: 2.8px;
      }

      .st6 {
        stroke-width: 3px;
      }
    </style>
  </defs>
  <rect class="st10" width="80" height="80" rx="14" ry="14"/>
  <rect class="st9" x="6" y="6" width="68" height="68" rx="10" ry="10"/>
  <path class="st6" d="M27.1,14h10v52h-10"/>
  <path class="st2" d="M23,49l-6,6M23,49l6,6"/>
  <circle class="st7" cx="23" cy="32.9" r="4.1"/>
  <path class="st4" d="M23,38v10M23,38l7,4M23,38l-5,6"/>
  <path class="st3" d="M42.4,42h14"/>
  <path class="st5" d="M50.4,34l10,8-10,8"/>
  <g id="_04_Ascensore">
    <rect class="st0" x="22.1" y="29.3" width="35.8" height="35.8"/>
    <path class="st8" d="M36.9,22.8c-.3-.3-.8-.3-1.1,0l-1.8,1.9v-10.2c0-.4-.3-.7-.7-.7s-.7.3-.7.7v10.2l-1.8-1.9c-.3-.3-.8-.3-1.1,0-.3.3-.3.8,0,1.1l3.1,3.1h0s0,0,0,0h0s0,0,.1,0h0s0,0,0,0c0,0,0,0,0,0h.1c0,0,0,0,0,0h.1s0,0,0,0c0,0,0,0,0,0h0s0,0,.1,0c0,0,0,0,0,0,0,0,0,0,0,0h0l3.1-3.1c.3-.3.3-.8,0-1.1h0Z"/>
    <path class="st8" d="M43,18.3c.3.3.8.3,1.1,0l1.8-1.9v10.2c0,.4.3.7.7.7s.7-.3.7-.7v-10.2l1.8,1.9c.3.3.8.3,1.1,0,.3-.3.3-.8,0-1.1l-3.1-3.1h0s0,0,0,0h0s0,0-.1,0h0s0,0,0,0c0,0,0,0,0,0h-.1c0,0,0,0,0,0h-.1s0,0,0,0c0,0,0,0,0,0h0s0,0-.1,0c0,0,0,0,0,0,0,0,0,0,0,0h0l-3.1,3.1c-.3.3-.3.8,0,1.1h0Z"/>
    <line class="st1" x1="16.1" y1="66.2" x2="16.1" y2="18.8"/>
    <line class="st1" x1="63.9" y1="66.2" x2="63.9" y2="18.8"/>
  </g>
</svg>