<?xml version="1.0" encoding="UTF-8"?>
<svg id="Layer_1" xmlns="http://www.w3.org/2000/svg" version="1.1" viewBox="0 0 80 80">
  <!-- Generator: Adobe Illustrator 29.1.0, SVG Export Plug-In . SVG Version: 2.1.0 Build 142)  -->
  <defs>
    <style>
      .st0 {
        stroke-width: 2.6px;
      }

      .st0, .st1, .st2, .st3, .st4, .st5 {
        display: none;
      }

      .st0, .st2, .st6, .st7, .st8, .st3, .st4, .st5 {
        fill: none;
      }

      .st0, .st2, .st6, .st7, .st3, .st4, .st5 {
        stroke: #fff;
        stroke-linecap: round;
      }

      .st1, .st9 {
        fill: #fff;
      }

      .st2, .st4 {
        stroke-width: 3.4px;
      }

      .st6 {
        stroke-width: 2.8px;
      }

      .st6, .st7, .st3, .st4, .st5 {
        stroke-linejoin: round;
      }

      .st7 {
        stroke-width: 2.9px;
      }

      .st8 {
        stroke: #06b3ff;
        stroke-miterlimit: 10;
      }

      .st10 {
        fill: #0072b2;
      }

      .st3 {
        stroke-width: 2.8px;
      }

      .st5 {
        stroke-width: 3px;
      }
    </style>
  </defs>
  <rect class="st10" width="80" height="80" rx="14" ry="14"/>
  <rect class="st8" x="6" y="6" width="68" height="68" rx="10" ry="10"/>
  <path class="st5" d="M27.1,14h10v52h-10"/>
  <path class="st0" d="M23,49l-6,6M23,49l6,6"/>
  <circle class="st1" cx="23" cy="32.9" r="4.1"/>
  <path class="st3" d="M23,38v10M23,38l7,4M23,38l-5,6"/>
  <path class="st2" d="M42.4,42h14"/>
  <path class="st4" d="M50.4,34l10,8-10,8"/>
  <g>
    <polygon class="st9" points="14.4 64.3 14.4 55.8 27.4 55.8 27.4 48.1 40.5 48.1 40.5 39.7 53.8 39.7 53.8 31.6 65.6 31.6 65.6 64.3 14.4 64.3"/>
    <polyline class="st7" points="27 55.1 14.4 55.1 14.4 62.9"/>
    <polyline class="st7" points="27 55.1 27 47.3 33.9 47.3 39.6 47.3"/>
    <polyline class="st7" points="39.8 47.3 39.8 39.5 46.6 39.5 52.4 39.5"/>
    <polyline class="st6" points="52.4 39.5 52.4 31.6 58.8 31.6 64.2 31.6"/>
    <path class="st9" d="M32.6,20.9l-4.7-4.9h0s0,0,0,0c0,0,0,0,0,0,0,0,0,0,0,0,0,0,0,0,0,0,0,0,0,0,0,0,0,0,0,0,0,0,0,0,0,0,0,0,0,0,0,0,0,0,0,0,0,0,0,0,0,0,0,0,0,0h0s0,0,0,0h-.8s0,0,0,0h0s0,0,0,0c0,0,0,0,0,0,0,0,0,0,0,0,0,0,0,0,0,0,0,0,0,0,0,0,0,0,0,0,0,0,0,0,0,0,0,0,0,0,0,0,0,0,0,0,0,0,0,0h0s0,0,0,0l-4.7,4.9c-.5.5-.5,1.3,0,1.7s1.3.5,1.7,0l2.6-2.7v18.5c0,.7.6,1.2,1.2,1.2s1.2-.6,1.2-1.2v-18.5l2.6,2.7c.5.5,1.3.5,1.7,0,.5-.5.5-1.3,0-1.7h0Z"/>
  </g>
</svg>