<?xml version="1.0" encoding="UTF-8"?><svg xmlns="http://www.w3.org/2000/svg" viewBox="0 0 512 512"><g id="_01_Inizio_percorso"><g id="Icona_Bianco"><rect x="12" y="12" width="488.1" height="488.1" rx="73.4" ry="73.4" fill="#fff"/></g></g><g id="_06_Tu_sei_qui"><g id="Bordo_Orientamento"><path d="M435,20c31.4,0,57,25.6,57,57v358c0,31.4-25.6,57-57,57H77c-31.4,0-57-25.6-57-57V77c0-31.4,25.6-57,57-57h358M435,0H77C34.5,0,0,34.5,0,77v358c0,42.5,34.5,77,77,77h358c42.5,0,77-34.5,77-77V77c0-42.5-34.5-77-77-77h0Z" fill="#0072b2"/></g><ellipse cx="256" cy="396.6" rx="85.3" ry="28.4" fill="#0072b2"/><path d="M200.4,314.2l46.7,48.5c0,0,.1.1.2.2.1.1.2.2.4.4.1,0,.2.2.3.3.1.1.2.2.4.3.1,0,.2.2.4.3.1,0,.2.2.4.3.1,0,.3.2.4.3.1,0,.2.1.4.2.1,0,.3.2.4.2.1,0,.2.1.4.2.2,0,.3.1.5.2,0,0,.2,0,.2.1,0,0,0,0,.1,0,.2,0,.3.1.5.2.1,0,.3,0,.4.1.2,0,.3,0,.5.1.1,0,.3,0,.4.1.2,0,.3,0,.5,0,.1,0,.3,0,.4,0,.1,0,.3,0,.4,0,.1,0,.3,0,.4,0,.2,0,.3,0,.5,0,.1,0,.3,0,.4,0,.2,0,.3,0,.5,0,.1,0,.3,0,.4,0,.2,0,.3,0,.5,0,.1,0,.3,0,.4,0,.2,0,.3,0,.5,0,.1,0,.3,0,.4,0,.1,0,.3,0,.4-.1.1,0,.3,0,.4-.1.1,0,.3,0,.4-.1.2,0,.3-.1.5-.2,0,0,0,0,.1,0,0,0,.2,0,.2-.1.2,0,.3-.1.5-.2.1,0,.3-.1.4-.2.1,0,.3-.1.4-.2.1,0,.3-.1.4-.2.1,0,.3-.2.4-.3.1,0,.3-.2.4-.3.1,0,.2-.2.4-.3.1,0,.2-.2.4-.3.1,0,.2-.2.3-.3.1-.1.2-.2.4-.3,0,0,.1-.1.2-.2l46.7-48.5c4.7-4.9,4.6-12.6-.3-17.3-4.9-4.7-12.6-4.6-17.3.3l-25.7,26.6v-183.3c0-6.8-5.5-12.3-12.3-12.3s-12.3,5.5-12.3,12.3v183.2l-25.7-26.6c-4.7-4.9-12.5-5-17.3-.3-4.9,4.7-5,12.5-.3,17.3Z"/><ellipse cx="356.8" cy="260" rx="49" ry="16.3" fill="none" stroke="#d6d6d6" stroke-miterlimit="10" stroke-width="5"/><ellipse cx="173.7" cy="217.6" rx="34.6" ry="11.5" fill="none" stroke="#d6d6d6" stroke-miterlimit="10" stroke-width="5"/><ellipse cx="339.5" cy="164.1" rx="17.3" ry="5.7" fill="none" stroke="#d6d6d6" stroke-miterlimit="10" stroke-width="5"/></g></svg>