<?xml version="1.0" encoding="UTF-8"?>
<svg id="Layer_1" xmlns="http://www.w3.org/2000/svg" version="1.1" viewBox="0 0 80 80">
  <!-- Generator: Adobe Illustrator 29.1.0, SVG Export Plug-In . SVG Version: 2.1.0 Build 142)  -->
  <defs>
    <style>
      .st0, .st1 {
        stroke-linecap: round;
        stroke-width: 4.2px;
      }

      .st0, .st1, .st2, .st3 {
        fill: none;
      }

      .st0, .st1, .st3 {
        stroke: #fff;
      }

      .st4, .st5 {
        fill: #fff;
      }

      .st4, .st3 {
        display: none;
      }

      .st1 {
        stroke-linejoin: round;
      }

      .st6 {
        fill: #06b3ff;
      }

      .st2 {
        stroke: #06b3ff;
      }

      .st2, .st3 {
        stroke-miterlimit: 10;
      }

      .st7 {
        fill: #0072b2;
      }

      .st3 {
        stroke-width: .8px;
      }
    </style>
  </defs>
  <rect class="st7" width="80" height="80" rx="14" ry="14"/>
  <rect class="st2" x="6" y="6" width="68" height="68" rx="10" ry="10"/>
  <g id="_06_Tu_sei_qui">
    <ellipse class="st6" cx="40" cy="60.6" rx="13.3" ry="4.4"/>
    <path class="st4" d="M32.3,47.7l7.3,7.6h.8l7.3-7.6c.7-.8.7-2,0-2.7-.8-.7-2-.7-2.7,0l-4,4.1v-28.5c0-1.1-.9-1.9-1.9-1.9s-1.9.9-1.9,1.9v28.5l-4-4.1c-.7-.8-1.9-.8-2.7,0-.8.7-.8,1.9,0,2.7h1.8Z"/>
    <ellipse class="st3" cx="56.7" cy="44.3" rx="7.6" ry="2.5"/>
    <ellipse class="st3" cx="28.2" cy="37.7" rx="5.4" ry="1.8"/>
    <ellipse class="st3" cx="54" cy="29.4" rx="2.7" ry=".9"/>
  </g>
  <g>
    <path class="st0" d="M40,34v23.6"/>
    <path class="st1" d="M47.9,49.8l-7.9,7.9-7.9-7.9"/>
    <circle class="st5" cx="40" cy="20.9" r="5.3"/>
  </g>
</svg>