<?xml version="1.0" encoding="UTF-8"?>
<svg id="Layer_1" xmlns="http://www.w3.org/2000/svg" version="1.1" viewBox="0 0 80 80">
  <!-- Generator: Adobe Illustrator 29.1.0, SVG Export Plug-In . SVG Version: 2.1.0 Build 142)  -->
  <defs>
    <style>
      .st0 {
        fill: #fff;
      }

      .st1 {
        fill: #e69f00;
      }

      .st2 {
        fill: none;
        stroke: #ffcb6e;
        stroke-miterlimit: 10;
      }
    </style>
  </defs>
  <rect class="st1" width="80" height="80" rx="14" ry="14"/>
  <rect class="st2" x="6" y="6" width="68" height="68" rx="10" ry="10"/>
  <g>
    <path class="st0" d="M27.8,41.4c0,.2,0,.5.2.7.7.9,1.5,1.8,2.4,2.6,3.9,3.5,9.6,5.6,15.6,5.6s1.3,0,1.9,0v1.2c0,3.4,1.5,6.5,4.2,8.7.4.3.5.8.4,1.2-.2.4-.6.7-1,.7h-30.4c-.5,0-.9-.3-1-.7-.2-.4,0-.9.3-1.2,1.3-1,2.3-2.4,3.1-3.9.7-1.5,1.1-3.1,1.1-4.8v-4.8c0-.9-.6-1.8-1.6-2-.9-.2-1.7-.8-2.3-1.5-.6-.7-.9-1.7-.9-2.6v-20.1c0-1.3,1.1-2.3,2.3-2.3h7.1c1.3,0,2.3,1.1,2.3,2.3v13.4h27.7c.6,0,1.1.5,1.1,1.1,0,5.7-4.3,10.8-10.7,13-.5.2-1.1.3-1.6.5-.3,0-.6.1-.9.2,0,0,0,0,0,0-.3,0-.7,0-1,0s-.2,0-.3,0c-5.4,0-10.6-1.9-14.1-5.1-.8-.7-1.5-1.5-2.2-2.4-.2-.2-.4-.4-.7-.4s-.4,0-.5.2c-.2.1-.3.3-.4.6Z"/>
    <path class="st0" d="M47.9,47.4v.9c-.3,0-.6.1-.9.2,0,0,0,0,0,0-.3,0-.7,0-1,0s-.2,0-.3,0v-1.1c0-.5.4-1,.9-1.1,0,0,0,0,0,0,0,0,.1,0,.2,0,.6,0,1.1.5,1.1,1.1Z"/>
    <path class="st0" d="M59.2,31.8h-28.8c-.6,0-1.1-.5-1.1-1.1s.5-1.1,1.1-1.1h28.8c.6,0,1.1.5,1.1,1.1s-.5,1.1-1.1,1.1Z"/>
    <path class="st0" d="M47.9,47.4v.9c-.3,0-.6.1-.9.2,0,0,0,0,0,0-.3,0-.7,0-1,0s-.2,0-.3,0v-1.1c0-.5.4-1,.9-1.1,0,0,0,0,0,0,0,0,.1,0,.2,0,.6,0,1.1.5,1.1,1.1Z"/>
    <path class="st0" d="M28.2,40.8c.2-.1.3-.2.5-.2.3,0,.6.1.7.4.6.8,1.3,1.6,2.2,2.4,3.6,3.2,8.7,5.1,14.1,5.1,0,0,.2,0,.3,0,.3,0,.7,0,1,0,0,0,0,0,0,0,.3,0,.6-.1.9-.2.6-.1,1.1-.3,1.6-.5-.5,0-1.1.1-1.6.2-.6,0-1.3,0-1.9,0s-.2,0-.3,0c-5.3,0-10.3-1.9-13.8-5-.8-.7-1.5-1.5-2.1-2.3-.4-.6-1.3-.7-1.9-.3-.6.4-.7,1.3-.3,1.9.7,1,1.5,1.9,2.5,2.7,4,3.6,9.8,5.7,15.9,5.7s1.3,0,1.9,0v-.4c-.6,0-1.3,0-1.9,0-6,0-11.6-2-15.6-5.6-.9-.8-1.7-1.7-2.4-2.6-.1-.2-.2-.4-.2-.7,0-.2.2-.4.4-.6Z"/>
  </g>
</svg>