<?xml version="1.0" encoding="UTF-8"?>
<svg id="Layer_1" xmlns="http://www.w3.org/2000/svg" version="1.1" viewBox="0 0 80 80">
  <!-- Generator: Adobe Illustrator 29.1.0, SVG Export Plug-In . SVG Version: 2.1.0 Build 142)  -->
  <defs>
    <style>
      .st0 {
        fill: #fff;
      }

      .st1 {
        fill: #e69f00;
      }

      .st2 {
        fill: none;
        stroke: #ffcb6e;
        stroke-miterlimit: 10;
      }
    </style>
  </defs>
  <rect class="st1" width="80" height="80" rx="14" ry="14"/>
  <rect class="st2" x="6" y="6" width="68" height="68" rx="10" ry="10"/>
  <g>
    <path class="st0" d="M28.7,17c.3-2,2.1-3.5,4.1-3.5,4.4,0,8.8,0,13.1,0v5.1h-12.3c-.2,1.7-.5,3.4-.7,5.1,3.8,0,7.5,0,11.3,0,.8,0,1.6.7,1.7,1.5,0,.4,0,.9,0,1.3,0,.5,0,1-.2,1.4-.3.6-.9,1-1.6.9-.4,4.6-.9,9.1-1.4,13.7,2.9,0,5.8,0,8.7,0,4.9,7.2,9.8,14.4,14.7,21.6,0,.2.3.3.2.5,0,.6,0,1.2,0,1.8H25.5c0-.6,0-1.3,0-1.9.3-.5.7-1,1-1.5-1.3,0-2.5,0-3.8,0-.6,0-1.2,0-1.8-.3-1.4-.6-2.4-2-2.6-3.5-1-10.1-2-20.2-3-30.3-.7,0-1.4-.4-1.7-1.1-.2-.5-.1-1-.1-1.5,0-.5,0-1.1.2-1.6.3-.6.9-.9,1.5-.9,4.2,0,8.4,0,12.6,0,.3-2.2.6-4.5.9-6.7ZM30.4,17.3c-.3,2.1-.6,4.3-.9,6.4.6,0,1.2,0,1.7,0,.2-1.8.5-3.6.7-5.4,0-.8.9-1.5,1.7-1.5,3.5,0,7.1,0,10.6,0v-1.7c-3.8,0-7.6,0-11.3,0-1.2,0-2.3.9-2.5,2.1ZM15.2,25.5v1.7h29.1v-1.7H15.2ZM17,28.9c.2,1.6.3,3.1.5,4.7.8-.5,1.8-.8,2.8-1,2.1-.4,4.3-.5,6.4,0,.2-1.3.3-2.5.5-3.8h-10.1ZM28.9,28.9c-.3,2.5-.7,4.9-1,7.4.6-.3,1.2-.5,1.8-.8.3-2.2.6-4.4.9-6.6h-1.7ZM32.3,28.9c-.3,1.9-.5,3.8-.8,5.8.8-.4,1.7-.7,2.5-1.1,2.5-1,5.3-1.6,8-1.1.1-1.2.2-2.4.4-3.6-3.4,0-6.8,0-10.1,0ZM19.3,34.6c-.5.2-1,.4-1.3.7-.2.1-.2.4,0,.6.3.4.8.6,1.3.8,1.4.5,2.9.7,4.4.7.9,0,1.7-.2,2.5-.4.1-.9.2-1.7.3-2.6-.9-.2-1.9-.4-2.9-.4-1.4,0-2.9.2-4.3.6ZM38.4,34.1c-2.7.4-5.2,1.6-7.6,2.7-1.8.8-3.6,1.7-5.5,2.1-1,.2-2.1.2-3.1,0-1.4-.1-2.9-.4-4.2-1,.7,7,1.4,14,2.1,21,.1,1.2,1.2,2.2,2.4,2.2,1.7,0,3.4,0,5.1,0,4.3-6.3,8.5-12.5,12.8-18.8.2,0,.5,0,.7,0,.3-2.8.6-5.5.8-8.3-1.2-.3-2.4-.3-3.5-.1ZM41.3,44.3c-4.7,6.8-9.3,13.7-13.9,20.5.9,0,1.9,0,2.8,0,4.7-6.8,9.5-13.7,14.2-20.5-1,0-2,0-3,0ZM46.4,44.3c-4.7,6.8-9.5,13.7-14.2,20.5h3c4.7-6.8,9.5-13.7,14.2-20.5-1,0-2,0-3,0ZM37.4,64.8c9.1,0,18.2,0,27.3,0-4.5-6.6-9-13.2-13.5-19.9-4.6,6.6-9.2,13.2-13.7,19.9Z"/>
    <path class="st0" d="M32.6,39.2c.9-.2,2,0,2.6.8.5.5,1,1,1.4,1.4.7.8,1,2,.6,3-.2.5-.5.9-.8,1.2-.5.4-.9.9-1.3,1.3-.9.8-2.2,1-3.2.4-.6-.3-1-.8-1.5-1.2-.4-.4-.8-.7-1.1-1.2-.6-.9-.6-2.1,0-3,.4-.7,1.1-1.2,1.6-1.7.5-.5,1-.9,1.7-1ZM32.8,40.9c-.3.1-.6.4-.8.6-.4.4-.7.7-1.1,1.1-.4.4-.4,1.2,0,1.6.5.5.9.9,1.4,1.4.4.4,1,.4,1.5.1.4-.3.6-.6.9-.9.3-.3.7-.6.9-1,.2-.5,0-1-.3-1.3-.4-.4-.9-.9-1.3-1.3-.3-.3-.8-.4-1.2-.3Z"/>
    <path class="st0" d="M23.5,46.8c1.1-1.1,3.1-1,4.1.2.6.6,1.2,1.1,1.7,1.8.5.9.6,2,0,2.9-.2.4-.6.8-1,1.1.3.4.7.7,1,1.1.5.9.5,2,0,2.9-.3.5-.7.9-1.1,1.3-.5.5-1,1.1-1.7,1.4-1.1.5-2.5.2-3.3-.7-.6-.6-1.2-1.1-1.7-1.8-.5-.9-.6-2.1,0-3,.2-.4.6-.8,1-1.1-.4-.4-.8-.7-1-1.2-.5-1-.4-2.3.3-3.2.5-.6,1.1-1.1,1.6-1.7ZM25.1,47.8c-.3.1-.6.4-.8.6-.3.4-.7.7-1.1,1.1-.4.4-.4,1.2,0,1.6.5.5.9.9,1.4,1.4.4.4,1,.4,1.5.2.3-.2.5-.4.7-.7.3-.3.7-.6,1-1,.4-.5.3-1.1-.1-1.6-.5-.5-.9-.9-1.4-1.4-.3-.3-.8-.4-1.2-.3ZM23.1,54.7c-.3.4-.2,1.1.1,1.5.5.5.9.9,1.4,1.4.4.4,1,.4,1.5.1.3-.3.6-.6.9-.9.4-.4,1-.8,1-1.5,0-.6-.5-1-.9-1.4-1,.7-2.4.7-3.4,0-.2.2-.5.5-.7.7Z"/>
    <path class="st0" d="M49.4,58h1.7v1.7h-1.7v-1.7Z"/>
    <path class="st0" d="M52.8,58h1.7v1.7h-1.7v-1.7Z"/>
    <path class="st0" d="M56.2,58h1.7v1.7h-1.7v-1.7Z"/>
    <path class="st0" d="M49.4,61.4h1.7v1.7h-1.7v-1.7Z"/>
    <path class="st0" d="M52.8,61.4h1.7v1.7h-1.7v-1.7Z"/>
    <path class="st0" d="M56.2,61.4h1.7v1.7h-1.7v-1.7Z"/>
  </g>
</svg>