<?xml version="1.0" encoding="UTF-8"?>
<svg id="Layer_1" xmlns="http://www.w3.org/2000/svg" version="1.1" viewBox="0 0 80 80">
  <!-- Generator: Adobe Illustrator 29.1.0, SVG Export Plug-In . SVG Version: 2.1.0 Build 142)  -->
  <defs>
    <style>
      .st0 {
        fill: #fff;
      }

      .st1 {
        fill: #e69f00;
      }

      .st2 {
        fill: none;
        stroke: #ffcb6e;
        stroke-miterlimit: 10;
      }
    </style>
  </defs>
  <rect class="st1" width="80" height="80" rx="14" ry="14"/>
  <rect class="st2" x="6" y="6" width="68" height="68" rx="10" ry="10"/>
  <g>
    <path class="st0" d="M64.9,67.5H15.1c-1.4,0-2.6-1.2-2.6-2.6V15.1c0-1.4,1.2-2.6,2.6-2.6h49.8c1.4,0,2.6,1.2,2.6,2.6v49.8c0,1.4-1.2,2.6-2.6,2.6ZM15.1,13.9c-.7,0-1.2.6-1.2,1.2v49.8c0,.7.6,1.2,1.2,1.2h49.8c.7,0,1.2-.6,1.2-1.2V15.1c0-.7-.6-1.2-1.2-1.2H15.1Z"/>
    <path class="st0" d="M66.8,19.5H13.2c-.4,0-.7-.3-.7-.7s.3-.7.7-.7h53.6c.4,0,.7.3.7.7s-.3.7-.7.7Z"/>
    <path class="st0" d="M33.7,67.5c-.4,0-.7-.3-.7-.7V18.9c0-.4.3-.7.7-.7s.7.3.7.7v48c0,.4-.3.7-.7.7Z"/>
    <path class="st0" d="M28.2,46.6h-2.8c-.6,0-1-.5-1-1v-10.3c0-.6.5-1,1-1h2.8c.6,0,1,.5,1,1v10.3c0,.6-.5,1-1,1ZM25.7,45.2h2.1v-9.6h-2.1v9.6Z"/>
    <path class="st0" d="M53.9,25.7c-.4,0-.7-.3-.7-.7v-1.1c0-.4-.3-.7-.7-.7h-6.2c-.4,0-.7.3-.7.7v1.1c0,.4-.3.7-.7.7s-.7-.3-.7-.7v-1.1c0-1.2.9-2.1,2.1-2.1h6.2c1.2,0,2.1.9,2.1,2.1v1.1c0,.4-.3.7-.7.7Z"/>
    <path class="st0" d="M49.4,23.2c-.4,0-.7-.3-.7-.7v-3.7c0-.4.3-.7.7-.7s.7.3.7.7v3.7c0,.4-.3.7-.7.7Z"/>
    <path class="st0" d="M42.3,25.7c-.4,0-.7-.3-.7-.7v-1.1c0-.4-.3-.7-.7-.7h-6.5c-.4,0-.7-.3-.7-.7s.3-.7.7-.7h6.5c1.2,0,2.1.9,2.1,2.1v1.1c0,.4-.3.7-.7.7Z"/>
    <path class="st0" d="M37.8,23.2c-.4,0-.7-.3-.7-.7v-3.7c0-.4.3-.7.7-.7s.7.3.7.7v3.7c0,.4-.3.7-.7.7Z"/>
    <path class="st0" d="M45.6,51.2h-11.9c-.4,0-.7-.3-.7-.7s.3-.7.7-.7h10.5v-10.2h4.5c.5,0,.8-.4.8-.8v-2c0-6.2-5-11.2-11.2-11.2h-4.6c-.4,0-.7-.3-.7-.7s.3-.7.7-.7h4.6c1.7,0,3.3.3,4.9,1,1.5.6,2.8,1.5,4,2.7,1.2,1.2,2.1,2.5,2.7,4,.7,1.5,1,3.2,1,4.9v2c0,1.2-1,2.2-2.2,2.2h-3.2v10.2Z"/>
    <path class="st0" d="M44.9,41.1c-.4,0-.7-.3-.7-.7v-5.5c0-.4.3-.7.7-.7s.7.3.7.7v5.5c0,.4-.3.7-.7.7Z"/>
    <path class="st0" d="M50.2,37.2h-5.3c-.4,0-.7-.3-.7-.7s.3-.7.7-.7h5.3c.4,0,.7.3.7.7s-.3.7-.7.7Z"/>
    <path class="st0" d="M55.4,51.2h-9.8c-.4,0-.7-.3-.7-.7s.3-.7.7-.7h9.8c.4,0,.7-.3.7-.7v-9.5h4.5c.5,0,.8-.4.8-.8v-2c0-6.2-5-11.2-11.2-11.2h-4.6c-.4,0-.7-.3-.7-.7s.3-.7.7-.7h4.6c1.7,0,3.3.3,4.9,1,1.5.6,2.8,1.5,4,2.7,1.2,1.2,2.1,2.5,2.7,4,.7,1.5,1,3.2,1,4.9v2c0,1.2-1,2.2-2.2,2.2h-3.2v8.1c0,1.1-.9,2.1-2.1,2.1Z"/>
    <path class="st0" d="M56.8,41.1c-.4,0-.7-.3-.7-.7v-5.5c0-.4.3-.7.7-.7s.7.3.7.7v5.5c0,.4-.3.7-.7.7Z"/>
    <path class="st0" d="M62,37.2h-5c-.4,0-.7-.3-.7-.7s.3-.7.7-.7h5c.4,0,.7.3.7.7s-.3.7-.7.7Z"/>
    <path class="st0" d="M66.8,58.9h-33.1c-.4,0-.7-.3-.7-.7s.3-.7.7-.7h33.1c.4,0,.7.3.7.7s-.3.7-.7.7Z"/>
  </g>
</svg>