<?xml version="1.0" encoding="UTF-8"?>
<svg id="Layer_1" xmlns="http://www.w3.org/2000/svg" version="1.1" viewBox="0 0 80 80">
  <!-- Generator: Adobe Illustrator 29.1.0, SVG Export Plug-In . SVG Version: 2.1.0 Build 142)  -->
  <defs>
    <style>
      .st0 {
        stroke: #fff;
        stroke-linecap: round;
        stroke-linejoin: round;
        stroke-width: 2.2px;
      }

      .st0, .st1 {
        fill: none;
      }

      .st2 {
        fill: #fff;
      }

      .st3 {
        fill: #e69f00;
      }

      .st1 {
        stroke: #ffcb6e;
        stroke-miterlimit: 10;
      }
    </style>
  </defs>
  <rect class="st3" width="80" height="80" rx="14" ry="14"/>
  <rect class="st1" x="6" y="6" width="68" height="68" rx="10" ry="10"/>
  <g id="_x33_">
    <path class="st2" d="M40,63.5c-1,0-2,0-2.9-.1h-.6c-.3,0-.5-.2-.7-.4l-1.3-1.4c-7.6-1.2-22.3-1.5-22.4-1.5-.6,0-1.1-.5-1.1-1.1V24.7c0-.6.5-1.1,1.1-1.1s1.1.5,1.1,1.1v33.3c3.6,0,15.5.4,22,1.6.2,0,.4.2.6.3l1.2,1.3h.2c1.8.2,3.7.2,5.5,0h.2s1.2-1.3,1.2-1.3c.2-.2.4-.3.6-.3,6.6-1.1,18.4-1.5,22-1.6V24.7c0-.6.5-1.1,1.1-1.1s1.1.5,1.1,1.1v34.4c0,.6-.5,1.1-1.1,1.1-.1,0-14.8.3-22.4,1.5l-1.3,1.4c-.2.2-.4.3-.7.3h-.6c-1,.1-1.9.2-2.9.2Z"/>
    <path class="st2" d="M40,60.4c-.1,0-.3,0-.4,0-.4-.2-.7-.6-.7-1V25.7c0-.3.1-.6.4-.8.3-.3,8.5-7.6,19.6-8.4.3,0,.6,0,.8.3.2.2.3.5.3.8v34.4c0,.6-.5,1.1-1,1.1-6.1.2-10.7,2.1-13.5,3.7-3.1,1.7-4.7,3.4-4.7,3.4-.2.2-.5.3-.8.3ZM41.1,26.2v30.8c.8-.6,1.9-1.4,3.3-2.2,2.9-1.6,7.5-3.6,13.6-3.9V18.7c-8.6,1-15.3,6.1-16.8,7.4Z"/>
    <path class="st2" d="M40,60.4c-.3,0-.6-.1-.8-.3,0,0-1.6-1.7-4.7-3.4-2.8-1.6-7.4-3.5-13.5-3.7-.6,0-1-.5-1-1.1V17.6c0-.3.1-.6.3-.8.2-.2.5-.3.8-.3,11.1.7,19.3,8.1,19.6,8.4.2.2.4.5.4.8v33.7c0,.4-.3.8-.7,1-.1,0-.3,0-.4,0ZM22.1,50.9c6.1.4,10.7,2.3,13.6,3.9,1.4.8,2.4,1.5,3.3,2.2v-30.8c-1.6-1.3-8.3-6.5-16.8-7.4v32.2Z"/>
    <path class="st0" d="M19.9,21.8l-4.1-.3v33.6l8,.4c3.2.2,6.4.8,9.4,1.8l6.7,2.3"/>
    <path class="st0" d="M60.1,21.8l4.1-.3v33.6s-8,.4-8,.4c-3.2.2-6.4.8-9.4,1.8l-6.7,2.3"/>
  </g>
</svg>