<?xml version="1.0" encoding="UTF-8"?>
<svg id="Layer_1" xmlns="http://www.w3.org/2000/svg" version="1.1" viewBox="0 0 80 80">
  <!-- Generator: Adobe Illustrator 29.1.0, SVG Export Plug-In . SVG Version: 2.1.0 Build 142)  -->
  <defs>
    <style>
      .st0 {
        fill: #fff;
      }

      .st1 {
        fill: #e69f00;
      }

      .st2 {
        fill: none;
        stroke: #ffcb6e;
        stroke-miterlimit: 10;
      }
    </style>
  </defs>
  <rect class="st1" width="80" height="80" rx="14" ry="14"/>
  <rect class="st2" x="6" y="6" width="68" height="68" rx="10" ry="10"/>
  <g>
    <path class="st0" d="M68.4,36.7c-.4-.8-1.1-1.3-2.1-1.5-.6,0-1.1,0-1.6.2,0-1,0-2,0-3,0-1.6-1.4-2.8-3.2-2.8-.7,0-1.3.2-1.8.5v-.8c0-.7-.3-1.4-.8-1.9-.6-.6-1.4-.9-2.3-.9h0c-1.5,0-2.7,1-3,2.3-.5-.4-1.1-.6-1.8-.6h0c-1.7,0-3.2,1.4-3.1,3.2v.3c-.5-.3-1.1-.5-1.7-.5h0c-1.7,0-3.1,1.4-3.1,3.2,0,3.3,0,7,0,11.1-1.5.9-2.7,2-3.3,3.3-.1.2-.2.4-.3.6,0-.2-.2-.4-.3-.6-.7-1.4-1.9-2.4-3.3-3.3,0-4.2,0-7.7,0-11.1,0-1.7-1.4-3.2-3.1-3.2h0c-.6,0-1.2.2-1.7.5v-.4c0-.8-.3-1.6-.9-2.2-.6-.6-1.4-.9-2.2-.9h0c-.7,0-1.3.2-1.8.6-.3-1.3-1.6-2.2-3-2.3-.9,0-1.8.3-2.4.9-.5.5-.8,1.2-.8,1.9v.8c-.5-.3-1.1-.5-1.8-.5-1.7,0-3.2,1.3-3.2,2.8,0,1,0,2,0,3-.4-.2-.9-.3-1.6-.2-1,.1-1.7.7-2.1,1.5-1.4,2.8,1.3,8.2,1.3,8.2.8,1.7,1.9,3.2,3,4.8,1.8,2.6,3.6,5.2,4.2,8.2.6,2.7.4,5.1.2,6.6,0,.4.2.7.6.8,0,0,0,0,.1,0,.3,0,.6-.2.7-.6.3-1.6.4-4.1-.2-7.1-.7-3.3-2.6-6-4.4-8.7-1-1.5-2.1-3-2.9-4.6-.8-1.6-2.2-5.3-1.3-7,.2-.4.5-.6,1-.7,1.3-.2,1.8,1.3,2.3,3.1,0,.2.1.4.2.6.2.7.6,1.4.9,2.1,0,0,0,0,0,.1,1,1.7,2.5,3.2,4.4,4.2.5.3,1,.5,1.6.8,1.4.7,2.8,1.3,3.7,2.5,1.4,1.9,1.3,3.9,1.2,4.8,0,.4.2.7.6.8.4,0,.7-.2.8-.6.1-1,.3-3.5-1.5-5.8-1.1-1.5-2.7-2.2-4.2-2.9-.5-.2-1-.5-1.5-.7-1.2-.7-2.3-1.6-3.1-2.6,6.3.2,16.8,1.8,19.1,6.4.6,1.1.8,2.4.8,3.7,0,0,0,0,0,0,0,.8-.1,1.5-.3,2.3-.4,1.4-1.3,2.8-2.4,3.9-.1.1-.2.3-.2.5v4.9c0,.4.3.7.7.7h0c.4,0,.7-.3.7-.7v-4.6c1-1,1.8-2.2,2.3-3.4.5,1.3,1.3,2.4,2.3,3.4v4.6c0,.4.3.7.7.7h0c.4,0,.7-.3.7-.7v-4.9c0-.2-.1-.4-.3-.5-1.2-1.1-2-2.4-2.4-3.9-.2-.8-.3-1.5-.3-2.3,0,0,0,0,0,0,0-1.3.3-2.6.8-3.7,2.3-4.6,12.8-6.2,19.1-6.4-.8,1-1.9,1.9-3.1,2.6-.5.3-1,.5-1.5.7-1.5.7-3.1,1.5-4.2,2.9-1.7,2.3-1.6,4.8-1.5,5.8,0,.4.4.7.8.6.4,0,.7-.4.6-.8-.1-.8-.2-2.9,1.2-4.8.9-1.2,2.2-1.8,3.7-2.5.5-.3,1.1-.5,1.6-.8,1.8-1,3.3-2.5,4.4-4.2,0,0,0,0,0-.1.4-.7.7-1.4.9-2.1,0-.2.1-.4.2-.6.5-1.8,1-3.3,2.3-3.1.5,0,.8.3,1.1.7.8,1.6-.6,5.4-1.3,7-.8,1.6-1.9,3.1-2.9,4.6-1.8,2.7-3.8,5.4-4.4,8.7-.6,3-.4,5.5-.2,7.1,0,.3.4.6.7.6s0,0,.1,0c.4,0,.6-.4.6-.8-.2-1.5-.4-3.8.2-6.6.6-3,2.5-5.6,4.2-8.2,1.1-1.5,2.2-3.1,3-4.8,0,0,2.8-5.5,1.3-8.2ZM33.2,32.6h0c1,0,1.7.8,1.7,1.8,0,3.1,0,6.4,0,10.3-1.1-.5-2.4-1-3.6-1.3v-9c0,0,0,0,0,0h0c0-1,.8-1.8,1.7-1.8ZM28.3,29.5h0c.5,0,.9.2,1.2.5.3.3.5.8.5,1.2v2.9s0,0,0,0v8.6c-1.2-.3-2.4-.5-3.6-.7v-5.8c0-1.6,0-3.3,0-5.2,0,0,0,0,0,0,0-.5.2-.9.5-1.2.3-.3.8-.5,1.2-.5ZM21.6,29.4c0-.3.1-.7.4-.9.3-.3.8-.5,1.4-.5.9,0,1.7.7,1.7,1.5,0,2.7,0,4.9,0,7.1v5.6c-1.3-.2-2.5-.3-3.5-.4,0-1.4,0-5.3,0-9.1,0,0,0,0,0,0v-3.2ZM17.7,40c0-.2-.1-.4-.2-.6-.2-.7-.5-1.6-.9-2.4,0-1.5,0-3,0-4.4,0-.8.8-1.4,1.8-1.4,1,0,1.7.7,1.7,1.5,0,3.8,0,7.6,0,9.1-.7,0-1.3,0-1.7,0-.3-.5-.5-1-.7-1.6ZM56.6,27.9h0c.5,0,1,.2,1.3.5.3.3.4.6.4.9v3.1s0,0,0,0c0,3.8,0,7.7,0,9.1-1,0-2.2.2-3.5.4v-5.6c0-2.2,0-4.4,0-7.1,0-.8.8-1.5,1.7-1.5ZM50.5,30.1c.3-.3.8-.5,1.2-.5h0c1,0,1.8.8,1.8,1.7,0,0,0,0,0,0,0,1.9,0,3.5,0,5.2v5.8c-1.1.2-2.3.4-3.5.7v-8.6c0,0,0,0,0,0v-2.9c0-.5.2-.9.5-1.2ZM45.1,34.3c0-1,.8-1.8,1.7-1.8.5,0,.9.2,1.2.5.3.3.5.7.5,1.2h0s0,0,0,0v9c-1.2.4-2.4.8-3.6,1.3,0-3.8,0-7.2,0-10.3ZM59.9,41.6c0-1.5,0-5.3,0-9.1,0-.8.8-1.5,1.7-1.5,1,0,1.8.6,1.8,1.4,0,1.5,0,3,0,4.4-.4.8-.7,1.7-.9,2.4,0,.2-.1.4-.2.6-.2.5-.4,1.1-.7,1.6-.4,0-1,0-1.7,0Z"/>
    <path class="st0" d="M40,31.6c3,0,5.5-2.5,5.5-5.5s-4.4-10.3-4.9-11.1c-.3-.4-1-.4-1.2,0-.5.8-4.9,8.3-4.9,11.1s2.5,5.5,5.5,5.5ZM40,16.7c1.5,2.7,4.1,7.6,4.1,9.3s-1.8,4.1-4.1,4.1-4.1-1.8-4.1-4.1,2.6-6.6,4.1-9.3Z"/>
    <path class="st0" d="M37.9,26.3h1.4v1.4c0,.4.3.7.7.7s.7-.3.7-.7v-1.4h1.4c.4,0,.7-.3.7-.7s-.3-.7-.7-.7h-1.4v-1.4c0-.4-.3-.7-.7-.7s-.7.3-.7.7v1.4h-1.4c-.4,0-.7.3-.7.7s.3.7.7.7Z"/>
  </g>
</svg>