<?xml version="1.0" encoding="UTF-8"?>
<svg id="Layer_1" xmlns="http://www.w3.org/2000/svg" version="1.1" viewBox="0 0 80 80">
  <!-- Generator: Adobe Illustrator 29.1.0, SVG Export Plug-In . SVG Version: 2.1.0 Build 142)  -->
  <defs>
    <style>
      .st0 {
        stroke: #fff;
        stroke-linecap: round;
        stroke-linejoin: round;
        stroke-width: 2.6px;
      }

      .st0, .st1 {
        fill: #fff;
      }

      .st2 {
        fill: #e69f00;
      }

      .st3 {
        fill: none;
        stroke: #ffcb6e;
        stroke-miterlimit: 10;
      }
    </style>
  </defs>
  <rect class="st2" width="80" height="80" rx="14" ry="14"/>
  <rect class="st3" x="6" y="6" width="68" height="68" rx="10" ry="10"/>
  <g id="Artboard_31">
    <path id="Artboard_311" data-name="Artboard_31" class="st1" d="M65.8,42.5c-2.2-1.3-3.9.2-4.5.7-3.3,2.8-5.8,4.8-7.7,5.9-.4-1-1.1-1.7-2-2.3-1.2-.7-2.8-.9-4.9-.9-3.9.1-7.5-1.5-9.9-3-3-1.8-6.4-1.9-9.5-.2l-2,.9c-1,.5-1.9.9-2.7,1.2v-.4c-.5-1.2-1.8-2-3-1.7l-5.1,1.3c-.6.2-1.1.5-1.4,1.1-.3.5-.4,1.2-.2,1.8l4.4,15.5c.3,1,1.3,1.7,2.3,1.7s.4,0,.6,0l5.1-1.3c.6-.2,1.1-.5,1.4-1.1.3-.5.4-1.2.2-1.8l-.2-.6,17.9,2.1c.3,0,.6,0,.9,0,.8,0,1.6-.2,2.5-.5,9.1-3.4,15.5-8.3,18.9-14.6.8-1.5.4-3.3-1.1-4.1ZM25.3,61c-.1.2-.3.3-.5.4l-5.1,1.3c-.4.1-.9-.2-1-.6l-4.4-15.5c0-.2,0-.4,0-.6.1-.2.3-.3.5-.4l5.1-1.3s0,0,0,0c0,0,.1,0,.2,0,.4,0,.7.3.8.6l4.4,15.5c0,.2,0,.4,0,.6ZM65.5,45.8c-3.3,5.9-9.4,10.6-18.1,13.9-.9.3-1.7.4-2.7.3l-18.5-2.2-3.2-11.4c.8-.4,1.7-.8,2.9-1.3l2.1-.9s0,0,0,0c2.6-1.4,5.5-1.4,8,.2,3.7,2.2,7.4,3.3,10.8,3.2,4.1-.1,5.2,1.4,5.5,2.3l-3.8,2c-1.1.6-2.2.8-3.5.6l-9.7-1.4c-.4,0-.8.2-.9.7,0,.4.2.8.7.9l9.7,1.4c.4,0,.7,0,1.1,0,1.2,0,2.3-.3,3.3-.8l4.4-2.3s0,0,0,0,0,0,0,0c2-1.1,5-3.3,8.8-6.6,1-.9,1.8-1,2.7-.5.8.5,1,1.3.5,2.1Z"/>
    <polygon class="st0" points="39.5 15.8 39.5 22.6 32.3 22.6 32.3 32.3 39.7 32.3 39.7 39.1 49.4 39.1 49.4 32.3 56.4 32.3 56.4 22.6 49.4 22.6 49.4 15.8 39.5 15.8"/>
  </g>
</svg>