<?xml version="1.0" encoding="UTF-8"?>
<svg id="Layer_1" xmlns="http://www.w3.org/2000/svg" version="1.1" viewBox="0 0 80 80">
  <!-- Generator: Adobe Illustrator 29.1.0, SVG Export Plug-In . SVG Version: 2.1.0 Build 142)  -->
  <defs>
    <style>
      .st0 {
        fill: #56b4e9;
      }

      .st1 {
        display: none;
      }

      .st1, .st2 {
        fill: #fff;
      }

      .st3 {
        fill: none;
        stroke: #0072b2;
        stroke-miterlimit: 10;
        stroke-width: 2px;
      }
    </style>
  </defs>
  <rect class="st0" width="80" height="80" rx="14" ry="14"/>
  <rect class="st3" x="6" y="6" width="68" height="68" rx="10" ry="10"/>
  <g>
    <path class="st2" d="M23.6,34.6c-.9,2-1.4,4.2-1.4,6.8,0,7.5,4.2,15.8,9.9,19.8-1,1-1.9,2.1-2.5,3.4,0,.1,0,.3,0,.4,0,1.8,3.5,2.7,10.5,2.7s10.5-.9,10.5-2.7,0-.3,0-.4c-.6-1.3-1.5-2.4-2.5-3.4,5.7-4.1,9.8-12.3,9.8-19.7s-.5-4.8-1.4-6.7c2.3-.9,4.3-2.5,5.7-4.6,1.9-2.9,2.2-6.6.8-9.8-.8-1.8-2.1-3.3-3.7-4.4-2-1.3-4.3-1.7-6.6-1.3-.6.1-1.2.3-1.8.6.1-.5.2-.9.2-1.5,0-.2,0-.5-.2-.7-.2-.2-.4-.3-.6-.3-6.1-.4-13.6-.4-20.1,0-.2,0-.5.1-.6.3-.2.2-.2.4-.2.7,0,.5.1,1,.2,1.4-.6-.2-1.1-.4-1.7-.6-2.3-.5-4.6,0-6.6,1.3-1.6,1.1-2.9,2.6-3.7,4.4-1.4,3.2-1.1,6.9.8,9.8,1.4,2,3.3,3.6,5.6,4.5ZM48.4,64.8c-2.4,1.2-14.4,1.2-16.8,0,.6-1,1.4-1.9,2.3-2.7,1.7.6,4.1,1,6.4,1s4.3-.3,5.9-1c.9.8,1.7,1.7,2.3,2.7ZM55.6,38.9c.1.8.2,1.6.2,2.5,0,7.3-4.3,15.4-10,18.9,0,0,0,0-.1,0-2.7,1.2-8.4,1.2-11.5,0-5.7-3.4-10-11.5-10-18.9s5-11.1,9.5-12.3c.4.4,1.1.8,2.1,1,1.1.3,2.7.4,4.3.4s5.2-.2,6.4-1.4c3.4,1,7.1,3.1,8.7,7.6M26.8,29.3c-1.6-.3-2.9-1.2-3.8-2.6-1.3-1.9-.7-4.5,1.2-5.8,1.3-.8,3-.5,3.8.8.4.7,1.1,1.1,1.9,1.3.8.2,1.6,0,2.3-.4.7-.4,1.1-1.1,1.3-1.9,0,0,0-.2,0-.3.2.1.3.2.5.3l-.9,6.5c-2,.5-3.7,1.3-5.1,2.3l-1.2-.2ZM45.8,20.6c.2-.1.4-.2.6-.3,0,.1,0,.2,0,.3.2.8.6,1.5,1.3,1.9.7.4,1.5.6,2.3.4.8-.2,1.5-.6,1.9-1.3.8-1.3,2.6-1.6,3.8-.8.9.6,1.6,1.6,1.8,2.7.2,1.1,0,2.2-.6,3.2-.9,1.3-2.2,2.2-3.8,2.6l-1.4.2c-1.4-1-3.1-1.7-5-2.3l-.9-6.6ZM52.9,16.5c1.8-.4,3.7,0,5.2,1,1.3.9,2.4,2.1,3,3.6,1.2,2.6.9,5.6-.7,8-1.2,1.9-3,3.2-5.1,4-.5-.7-1-1.3-1.6-1.9,2-.5,3.7-1.6,4.8-3.3.9-1.4,1.2-3,.9-4.6-.3-1.6-1.2-3-2.6-3.9-2.1-1.4-5-.8-6.4,1.3-.2.3-.4.4-.7.5-.3,0-.6,0-.9-.2-.3-.2-.4-.4-.5-.7,0-.3,0-.6.2-.9,1-1.5,2.6-2.6,4.4-3ZM48.9,14.5c-.5,2.2-2,3.5-4.4,4.7-.7.1-1.4.2-2.1.3-.5,0-.9.5-.8,1,0,.5.5.8.9.8s0,0,0,0c.5,0,.9-.1,1.4-.2l.9,6.6c-.4.3-2.1.8-5,.8s-4.6-.5-5-.8l.9-6.6c1.3.2,5.4.2,6.6.2,0,0-.6,0-.6,0,.5,0,2.7-.6,2.7-1.1,0-.5-1.6-.8-2.1-.8-1.4,0-5.5,0-7-.3-2.4-1.2-3.9-2.4-4.4-4.7,5.8-.3,12.3-.3,17.8,0ZM18.9,21c.6-1.5,1.7-2.7,3-3.6,1.5-1,3.4-1.4,5.2-1,1.8.4,3.4,1.4,4.4,3,.2.3.2.6.2.9,0,.3-.2.6-.5.7-.3.2-.6.2-.9.2-.3,0-.6-.2-.7-.5-1.4-2.1-4.3-2.7-6.4-1.3-2.8,1.8-3.6,5.6-1.7,8.4,1.1,1.6,2.7,2.8,4.6,3.3-.6.6-1.1,1.2-1.6,1.9-2-.7-3.7-2.1-4.9-3.9-1.6-2.4-1.8-5.4-.7-8Z"/>
    <path class="st1" d="M33.5,40.3c-.2,0-.4,0-.6-.1-.5-.1-1,.2-1.1.7-.1.5.2,1,.7,1.1.2,0,.4,0,.7.1,0,0,.1,0,.2,0,.4,0,.8-.3.9-.8.1-.5-.2-1-.7-1.1Z"/>
    <path class="st1" d="M30.1,39.4c-1.1-.4-2.1-.9-2.7-1.3-.4-.3-1-.2-1.3.2-.3.4-.2,1,.2,1.3.8.6,1.8,1.1,3.2,1.6.1,0,.2,0,.3,0,.4,0,.7-.2.9-.6.2-.5,0-1-.6-1.2Z"/>
  </g>
</svg>