<?xml version="1.0" encoding="UTF-8"?>
<svg id="Layer_1" xmlns="http://www.w3.org/2000/svg" version="1.1" viewBox="0 0 80 80">
  <!-- Generator: Adobe Illustrator 29.1.0, SVG Export Plug-In . SVG Version: 2.1.0 Build 142)  -->
  <defs>
    <style>
      .st0 {
        fill: #56b4e9;
      }

      .st1, .st2 {
        stroke: #fff;
        stroke-linecap: round;
        stroke-linejoin: round;
      }

      .st1, .st2, .st3 {
        fill: none;
        stroke-width: 2px;
      }

      .st4 {
        fill: #fff;
      }

      .st2 {
        display: none;
      }

      .st3 {
        stroke: #0072b2;
        stroke-miterlimit: 10;
      }
    </style>
  </defs>
  <rect class="st0" x=".2" width="80" height="80" rx="14" ry="14"/>
  <rect class="st3" x="6" y="6" width="68" height="68" rx="10" ry="10"/>
  <g>
    <path class="st4" d="M45.4,33.8c0,5.1-1.5,9.6-4.2,13.8-1,1.5-2.1,2.9-3,4.5-.9,1.6-1.7,3.3-2.2,5-.4,1.3-.9,2.6-1.6,3.7-1.9,3-5.3,4.5-8.9,3.7-3.5-.7-5.9-3.3-6.4-6.9-.1-1,.4-1.8,1.3-2,1-.1,1.7.4,1.8,1.5.3,2.2,1.7,3.8,3.8,4.3,2.3.5,4.4-.3,5.7-2.1.5-.7.8-1.5,1.1-2.4,1.1-3.6,2.8-6.8,5-9.8,2.2-3,3.7-6.3,4.3-10,.8-5.2-.1-10.1-3.5-14.3-2.2-2.7-5-4.3-8.5-4.5-2.7-.2-5.1.7-7.1,2.4-3.1,2.5-4.6,5.9-4.9,9.8,0,.2,0,.3,0,.5-.1.9-.8,1.5-1.7,1.5-.9,0-1.4-.7-1.4-1.6.2-3.5,1.3-6.7,3.4-9.6,2.2-3,5.1-5,8.9-5.7,4.6-.8,8.6.5,12,3.5,3.2,2.7,4.9,6.3,5.8,10.3.4,1.6.5,3.1.5,4.6Z"/>
    <path class="st4" d="M65.2,36.5c0,5.9-1.8,11.2-5.5,15.9-.2.2-.3.4-.5.6-.6.7-1.6.7-2.2.1-.6-.6-.7-1.5-.1-2.2.9-1,1.7-2.1,2.3-3.2,4.5-7.8,3.7-18.5-2.2-25.3-.7-.8-.7-1.7,0-2.3.7-.6,1.7-.5,2.3.3,3.3,4,5.2,8.6,5.7,13.7,0,.8.1,1.6.1,2.4Z"/>
    <path class="st4" d="M59.5,36.7c0,4-1.3,7.7-4,10.9-.2.2-.4.5-.6.7-.7.7-1.6.7-2.3,0-.6-.6-.6-1.6,0-2.2,1.1-1.1,1.9-2.3,2.5-3.7,2.2-5,1.5-11.3-2.5-15.4-.7-.7-.7-1.6,0-2.2.6-.6,1.6-.6,2.3.1,2.5,2.5,3.9,5.6,4.4,9,.1.8.2,1.7.2,2.7Z"/>
    <path class="st4" d="M53.6,36.6c0,2.8-1,5.3-3.2,7.2-1,.9-2.4.4-2.6-.8-.1-.6.1-1.1.6-1.5,2.2-1.8,2.7-5.5,1.4-8-.4-.8-.9-1.3-1.5-1.9-.6-.6-.6-1.5,0-2.1.5-.6,1.3-.7,2-.3.2.2.5.4.7.6,1.6,1.6,2.4,3.6,2.7,5.8,0,.3,0,.7,0,1Z"/>
  </g>
  <path class="st2" d="M37.3,40.7l.8-5c.4-2.5,0-5-1.2-7.2l-.3-.6c-.9-1.7-1.8-2.4-3.3-3.1s-1.6-.7-2.5-.9h-.1c-.9-.2-1.9-.2-2.8,0s-1.2.4-1.5.7c-.7.5-1,.7-1.5,1.5s-.9,1.7-1.1,2.7,0,1.8,0,2.9l.3,1.1c.3,1.4.9,1.5,2,2.3s1.5,1,2.2,1.5l1.8,1c1.3.7,2.2,1.9,2.5,3.3h0c.5,2-.2,4-1.8,5.3l-.9.7"/>
  <path class="st1" d="M22.8,39.7l1.3,3.7c.4,1.2.3,2.5-.3,3.6l-.7,1.3c-.4.7-.2,1.6.3,2.1h0c.7.7,1.9.9,2.7.3l1.5-1"/>
  <path class="st1" d="M37.5,40.7l1-7.2c.2-1.8-.6-3.7-1.4-5,0,0-1.8-3.8-6-4.1h-1.9c-2.4,0-4.5,1.7-4.9,4.1l-.2.9c-.3,1.9.5,3.8,2.1,4.9l3.7,2.4c1.5,1,2.5,2.7,2.6,4.5v1c.1,1-.3,2.1-1,2.8l-1.4,1.3"/>
</svg>