<?xml version="1.0" encoding="UTF-8"?>
<svg id="Layer_1" xmlns="http://www.w3.org/2000/svg" version="1.1" viewBox="0 0 80 80">
  <!-- Generator: Adobe Illustrator 29.1.0, SVG Export Plug-In . SVG Version: 2.1.0 Build 142)  -->
  <defs>
    <style>
      .st0 {
        fill: #56b4e9;
      }

      .st1 {
        fill: #9b0000;
      }

      .st2 {
        fill: #fff;
      }

      .st3, .st4, .st5 {
        stroke: #fff;
      }

      .st3, .st4, .st5, .st6 {
        fill: none;
      }

      .st3, .st5 {
        stroke-linecap: round;
        stroke-linejoin: round;
        stroke-width: 2.5px;
      }

      .st4 {
        stroke-width: 1.9px;
      }

      .st4, .st5 {
        display: none;
      }

      .st4, .st6 {
        stroke-miterlimit: 10;
      }

      .st6 {
        stroke: #0072b2;
        stroke-width: 2px;
      }
    </style>
  </defs>
  <rect class="st0" width="80" height="80" rx="14" ry="14"/>
  <rect class="st6" x="6" y="6" width="68" height="68" rx="10" ry="10"/>
  <g>
    <path class="st2" d="M51.2,23.9h-8.8c0,.3,0,.5,0,.8v12.8c.5-.4,1.2-.6,1.9-.6,1.9,0,3.5,1.6,3.5,3.5v9c0,3.8-1.6,7.5-4.2,10.1h1.4c.4,0,.8.4.8.8v7.1c0,.4-.4.8-.8.8h-22.9c-.4,0-.8-.4-.8-.8v-7.1c0-.4.4-.8.8-.8h1.4c-2.7-2.7-4.2-6.3-4.2-10.1v-7.4c0-1.9,1.6-3.5,3.5-3.5s1.4.2,1.9.6v-1.7c0-1.9,1.6-3.5,3.5-3.5s1.4.2,1.9.6v-2.7c0-1.9,1.6-3.5,3.5-3.5s1.4.2,1.9.6v-4.1c0-.3,0-.6,0-.8h-6.2c-1.2,3.5-4.5,5.9-8.4,5.9s-8.9-4-8.9-8.9,4-8.9,8.9-8.9,7.2,2.5,8.4,6h21.7M28.3,20.9c0-4-3.3-7.3-7.3-7.3s-7.3,3.3-7.3,7.3,3.3,7.3,7.3,7.3,7.3-3.3,7.3-7.3ZM44.3,61.1h-21.3v5.5h21.3v-5.5ZM42.5,40.4v6.4c0,.4-.4.8-.8.8s-.8-.4-.8-.8v-22c0-1.1-.9-1.9-1.9-1.9s-1.9.9-1.9,1.9v22c0,.4-.4.8-.8.8s-.8-.4-.8-.8v-15c0-1.1-.9-1.9-1.9-1.9s-1.9.9-1.9,1.9v15c0,.4-.4.8-.8.8s-.8-.4-.8-.8v-9.3c0-1.1-.9-1.9-1.9-1.9s-1.9.9-1.9,1.9v9.3c0,.4-.4.8-.8.8s-.8-.4-.8-.8v-4.7c0-1.1-.9-1.9-1.9-1.9s-1.9.9-1.9,1.9v7.4c0,4,1.9,7.7,5.1,10.1h15.3c3.2-2.4,5.1-6.2,5.1-10.1v-9c0-1-.9-1.9-1.9-1.9s-1.9.9-1.9,1.9ZM50.8,22.3c0-.4-.1-.9-.1-1.3s0-.9,0-1.3h-21c0,.4,0,.9,0,1.3s0,.9-.1,1.4h6.7c.6-.7,1.5-1.1,2.5-1.1s1.9.4,2.5,1.1h9.2ZM52.3,20.9"/>
    <circle class="st1" cx="59.3" cy="20.8" r="9.1"/>
    <path class="st5" d="M16.7,21.9l2.9,2.9,5.8-6.7"/>
    <circle class="st4" cx="59.3" cy="20.8" r="9"/>
    <g>
      <line class="st3" x1="62.1" y1="17.4" x2="56.4" y2="24.2"/>
      <line class="st3" x1="56.4" y1="17.4" x2="62.1" y2="24.2"/>
    </g>
  </g>
</svg>