<?xml version="1.0" encoding="UTF-8"?>
<svg id="Layer_1" xmlns="http://www.w3.org/2000/svg" version="1.1" viewBox="0 0 80 80">
  <!-- Generator: Adobe Illustrator 29.1.0, SVG Export Plug-In . SVG Version: 2.1.0 Build 142)  -->
  <defs>
    <style>
      .st0 {
        fill: #009e73;
      }

      .st1 {
        fill: #fff;
      }

      .st2 {
        fill: none;
        stroke: #7dffd7;
        stroke-miterlimit: 10;
      }
    </style>
  </defs>
  <rect class="st0" width="80" height="80" rx="14" ry="14"/>
  <rect class="st2" x="6" y="6" width="68" height="68" rx="10" ry="10"/>
  <g>
    <g>
      <path class="st1" d="M50.2,58.3c-5.8,0-10.6-4.8-10.6-10.6s.7-4.5,2.2-6.4c1.4-1.8,3.3-3.1,5.4-3.8.6-.2,1.2.2,1.4.7.2.6-.2,1.2-.7,1.4-3.5,1.1-6,4.4-6,8.1s3.8,8.4,8.4,8.4,7.1-2.6,8.1-6.2c.2-.6.8-.9,1.3-.8.6.2.9.8.8,1.3-1.2,4.6-5.5,7.9-10.2,7.9Z"/>
      <g>
        <path class="st1" d="M42.3,43.2c-.6,0-1.1-.4-1.1-1l-.4-5.9h-1.2c-.6,0-1.1-.5-1.1-1.1s.5-1.1,1.1-1.1h2.3c.6,0,1.1.5,1.1,1l.4,6.9c0,.6-.4,1.1-1,1.2,0,0,0,0,0,0Z"/>
        <g>
          <path class="st1" d="M23,27.9c.5.2,1,.4,1.5.4s.8,0,1.1-.2c1.8-.6,2.8-2.6,2.2-4.5-.6-1.8-2.6-2.8-4.5-2.2-.9.3-1.6.9-2,1.8-.4.8-.5,1.8-.2,2.7.3.9.9,1.6,1.8,2Z"/>
          <path class="st1" d="M39.6,34.1c-.2-1.1-1.1-1.6-2.5-1.6h-4.4c0,0-4.6-2.8-4.6-2.8,0,0,0,0,0,0-.4-.2-.9-.3-1.4-.3l-3.8-.2c-2-.1-3.7,1.3-3.9,3.3l-1.1,9.6s0,0,0,0h0s0,0,0,0c0,0,0,0,0,0l.4,4.4-4.9,9.4s0,0,0,0c-.3.6,0,1.4.6,1.7l1.6.9c.2.1.4.2.6.2s.3,0,.4,0c.4-.1.6-.4.8-.7l5-9.9c.2-.3.2-.7.2-1.1l-.2-2.2,4.5,2.4,1.1,10.7c0,.3.2.6.4.7.2.2.4.2.7.2s.1,0,.2,0l1.9-.3c.5,0,.9-.6.9-1.1l-.8-12.4c0-.7-.5-1.4-1.1-1.8l-4.2-2.3.8-6.8,5,2.3c.3.2.7.2,1.1.2h5.1s0,0,0,0c1.1-.2,1.9-1.4,1.6-2.5Z"/>
        </g>
      </g>
    </g>
    <g>
      <circle class="st1" cx="52.5" cy="28" r="3.4"/>
      <path class="st1" d="M57.3,39.6c1.1.4,2.3.6,3.5.6h3.9c1.2,0,2.1-1,2.1-2.2s-1-2.1-2.1-2.1h-2.8c-1.8,0-3.6-.7-5-1.7l-1.6-1.1s0,0,0,0c-1.5-.9-3.1-1.2-4.4-.9-1.9.5-3,1.7-3,3.4v8.7c0,2.6,2,4.7,4.6,4.8l5.2.3,3.5,8.6c.2.5.7.9,1.3.9.2,0,.4,0,.5-.1l1.5-.6c.7-.3,1.1-1.1.8-1.8l-4-10.2c-.2-.5-.6-.9-1.2-1.1l-4.4-1.4v-4.5l1.7.6Z"/>
    </g>
  </g>
</svg>