<?xml version="1.0" encoding="UTF-8"?>
<svg id="Layer_1" xmlns="http://www.w3.org/2000/svg" version="1.1" viewBox="0 0 80 80">
  <!-- Generator: Adobe Illustrator 29.1.0, SVG Export Plug-In . SVG Version: 2.1.0 Build 142)  -->
  <defs>
    <style>
      .st0, .st1 {
        fill: none;
      }

      .st2 {
        fill: #009e73;
      }

      .st3 {
        fill: #fff;
      }

      .st1 {
        stroke: #7dffd7;
        stroke-miterlimit: 10;
      }
    </style>
  </defs>
  <rect class="st2" width="80" height="80" rx="14" ry="14"/>
  <rect class="st0" x="6" y="6" width="68" height="68" rx="10" ry="10"/>
  <g>
    <path class="st3" d="M64.7,24.6l-9.2-9.2c-.2-.2-.4-.3-.7-.3H19.7c-2.5,0-4.6,2.1-4.6,4.6v2.8h1.8v-2.8c0-1.5,1.2-2.8,2.8-2.8h34.2v5.5c0,2,1.7,3.7,3.7,3.7h5.5v17.6h1.8v-18.5c0-.2,0-.5-.3-.7ZM55.7,22.4v-4.2l6.1,6.1h-4.2c-1,0-1.8-.8-1.8-1.8Z"/>
    <path class="st3" d="M16.9,50.6v-28.7h-1.8v28.7c0,2.8,2.1,5.1,4.6,5.1h15.7v-2.1h-15.7c-1.5,0-2.8-1.4-2.8-3.1Z"/>
    <rect class="st3" x="29.8" y="40" width="1.8" height="1.8"/>
    <rect class="st3" x="33.5" y="43.7" width="1.8" height="1.8"/>
    <rect class="st3" x="33.5" y="36.3" width="1.8" height="1.8"/>
    <rect class="st3" x="29.8" y="36.3" width="1.8" height="1.8"/>
    <rect class="st3" x="33.5" y="47.4" width="1.8" height="1.8"/>
    <rect class="st3" x="29.8" y="47.4" width="1.8" height="1.8"/>
    <rect class="st3" x="33.5" y="32.6" width="1.8" height="1.8"/>
    <rect class="st3" x="29.8" y="28.9" width="1.8" height="1.8"/>
    <rect class="st3" x="33.5" y="28.9" width="1.8" height="1.8"/>
    <rect class="st3" x="33.5" y="25.2" width="1.8" height="1.8"/>
    <rect class="st3" x="37.2" y="43.7" width="1.8" height="1.8"/>
    <rect class="st3" x="37.2" y="40" width="1.8" height="1.8"/>
    <rect class="st3" x="40.9" y="36.3" width="1.8" height="1.8"/>
    <rect class="st3" x="37.2" y="32.6" width="1.8" height="1.8"/>
    <rect class="st3" x="40.9" y="28.9" width="1.8" height="1.8"/>
    <rect class="st3" x="37.2" y="25.2" width="1.8" height="1.8"/>
    <rect class="st3" x="40.9" y="43.7" width="1.8" height="1.8"/>
    <rect class="st3" x="40.9" y="40" width="1.8" height="1.8"/>
    <rect class="st3" x="22.4" y="40" width="1.8" height="1.8"/>
    <rect class="st3" x="22.4" y="36.3" width="1.8" height="1.8"/>
    <rect class="st3" x="26.1" y="36.3" width="1.8" height="1.8"/>
    <rect class="st3" x="26.1" y="32.6" width="1.8" height="1.8"/>
    <rect class="st3" x="22.4" y="28.9" width="1.8" height="1.8"/>
    <rect class="st3" x="22.4" y="25.2" width="1.8" height="1.8"/>
    <rect class="st3" x="26.1" y="25.2" width="1.8" height="1.8"/>
    <rect class="st3" x="52" y="28.9" width="1.8" height="1.8"/>
    <rect class="st3" x="48.3" y="28.9" width="1.8" height="1.8"/>
    <rect class="st3" x="52" y="32.6" width="1.8" height="1.8"/>
    <rect class="st3" x="44.6" y="32.6" width="1.8" height="1.8"/>
    <rect class="st3" x="44.6" y="25.2" width="1.8" height="1.8"/>
    <rect class="st3" x="48.3" y="25.2" width="1.8" height="1.8"/>
    <rect class="st3" x="29.8" y="21.5" width="1.8" height="1.8"/>
    <rect class="st3" x="37.2" y="21.5" width="1.8" height="1.8"/>
    <rect class="st3" x="22.4" y="21.5" width="1.8" height="1.8"/>
    <rect class="st3" x="26.1" y="21.5" width="1.8" height="1.8"/>
    <rect class="st3" x="40.9" y="21.5" width="1.8" height="1.8"/>
    <rect class="st3" x="48.3" y="21.5" width="1.8" height="1.8"/>
    <rect class="st3" x="26.1" y="43.7" width="1.8" height="1.8"/>
    <rect class="st3" x="22.4" y="47.4" width="1.8" height="1.8"/>
    <rect class="st3" x="55.7" y="32.6" width="1.8" height="1.8"/>
    <rect class="st3" x="55.7" y="36.3" width="1.8" height="1.8"/>
    <path class="st3" d="M61.7,45.5c-.9,0-1.7.4-2.3,1-.6-.6-1.4-1-2.3-1s-1,.1-1.4.3v-5.4c0-1.8-1.5-3.2-3.2-3.2s-1.7.4-2.3,1c-.6-.6-1.4-1-2.3-1-1.8,0-3.2,1.5-3.2,3.2v12.2l-1-1.5c-.8-1.2-2.4-1.8-3.8-1.3-2.1.7-3,3.4-1.7,5.2l6.7,9.5c.2.2.5.4.8.4h18.5c.5,0,.9-.4.9-.9v-15.3c0-1.8-1.5-3.2-3.2-3.2ZM63.1,63.1h-17.1s-6.4-9.1-6.4-9.1c-.6-.8-.1-2.1.8-2.4.6-.2,1.3,0,1.7.6l2.7,4c.2.3.6.5,1,.4.4-.1.7-.5.7-.9v-15.3c0-.8.6-1.4,1.4-1.4s1.4.6,1.4,1.4v9.7c0,.5.4.9.9.9s.9-.4.9-.9v-9.7c0-.8.6-1.4,1.4-1.4s1.4.6,1.4,1.4v9.7c0,.5.4.9.9.9s.9-.4.9-.9v-1.4c0-.8.6-1.4,1.4-1.4s1.4.6,1.4,1.4v1.4c0,.5.4.9.9.9s.9-.4.9-.9v-1.4c0-.8.6-1.4,1.4-1.4s1.4.6,1.4,1.4v14.3Z"/>
  </g>
  <rect class="st1" x="6" y="6" width="68" height="68" rx="10" ry="10"/>
</svg>