<?xml version="1.0" encoding="UTF-8"?>
<svg id="Layer_1" xmlns="http://www.w3.org/2000/svg" version="1.1" viewBox="0 0 80 80">
  <!-- Generator: Adobe Illustrator 29.1.0, SVG Export Plug-In . SVG Version: 2.1.0 Build 142)  -->
  <defs>
    <style>
      .st0, .st1 {
        fill: #009e73;
      }

      .st0, .st2 {
        stroke: #fff;
        stroke-linecap: round;
        stroke-linejoin: round;
        stroke-width: 1.5px;
      }

      .st2, .st3 {
        fill: none;
      }

      .st3 {
        stroke: #7dffd7;
        stroke-miterlimit: 10;
      }

      .st4 {
        fill: #fff;
        font-family: Lexend-Bold, Lexend;
        font-size: 14px;
        font-weight: 700;
        isolation: isolate;
      }
    </style>
  </defs>
  <rect class="st1" width="80" height="80" rx="14" ry="14"/>
  <rect class="st3" x="6" y="6" width="68" height="68" rx="10" ry="10"/>
  <g>
    <path class="st2" d="M38.7,67.2l-2.5-13c-.3-1.6-.3-3.3,0-4.9l2.6-15.3.9-8.2.4-2.5c0-.5,0-1,0-1.6v-1.4c-.8-1.2-1.9-.6-1.9-.6-.5.2-1.2,1.1-1.5,1.6l-.7,1.4c-.6,1.1-.9,2.4-1,3.7v2.2c-.2.5-.5.9-.9,1.2h0c-.6.3-1.4.2-1.9-.2l-3-2.6c-.8-.7-1.5-1.6-1.9-2.6l-2.5-6c-.3-.8-.8-1.6-1.4-2.3l-1.2-1.3c-.4-.4-1-1-1.5-1.1,0,0-.9-.3-1.2,0s-.3.8-.3.8v.9l2.4,4.7c.4.7.7,1.5.9,2.3l.9,2.9c.1.4,0,.9-.1,1.3h0c-.2.4-.7.5-1,.3l-5.4-3-4.3-2.4c-.4-.2-.9-.3-1.4-.2h0c-.5.1-.8.7-.6,1.2v.2c.3.6.6,1.2,1.2,1.6l5,4c.5.4.8,1,.9,1.6l.5,3.9v1.2l-.2.7c-.2.8-.1,1.6,0,2.3l.4,1.3c.3.9.7,1.7,1.4,2.4l3.4,3.5c1.2,1.2,1.8,2.9,1.7,4.6l-.2,4.2-2.2,14.1"/>
    <path class="st2" d="M19.5,40.5h1c.6,0,1.2-.3,1.5-.8h0c.2-.2.4-.4.7-.4h2.2c.6,0,1.2,0,1.9,0l1.6-.3c.4-.5.5-1.1.3-1.7h0c-.2-.5-.5-.9-1-1l-1.5-.5c-.6-.2-1.2-.3-1.8-.4l-2.4-.3h-.4l-1-.3c-.5-.2-1.1,0-1.5.4l-1,1.1"/>
    <path class="st2" d="M28.8,35.6h0c.6-.8.6-2-.1-2.7l-.5-.5c-.2-.2-.4-.3-.6-.5l-5.7-2.2c-.5-.3-1-.4-1.6-.3h-.5c-.5.1-.9.4-1.2.7l-.8,1.1"/>
    <path class="st0" d="M69.4,59.8l-7.3-2.4-3.2-3.8s-1.6-3.4-2-7.7-.4-7.6-.7-8.3c-1.3-3.3-3.5-1.5-3.9-.4-.4,1.8-.4,3.3-.3,4.5s0,4.6,0,4.6l-8.3-6.5-6.9-5.3c-.4-.3-.8-.3-1.2,0h0c-.3.2-.5.6-.5.9v.4c0,.3,0,.6.3.9l4.9,5.6c.8.9,1.7,1.7,2.7,2.4l1.4.9-5.6-2.4c-.9-.4-2.2-.9-5.2-1.9l-3-1.1c-.5,0-1.3-.2-1.8.3,0,0-.5.3-.5,1.1s1.2,1.3,1.2,1.3c1.7,1,3.4,1.9,4.6,2.5l4.8,2.5,5.1,3.1-1.6-1c-.8-.5-1.9-1.5-3.7-.2s-1.3,2.4-.9,3.3,1.2,1.8,1.2,1.8l3.9.3-3.9-.3h0c-.3.8,0,2.4.2,3.2.6,1.6,2.9,1.9,4.1,2.4,0,0,2.8,1,3.2,1.4l5.5,4.6c.8.7,1.9,1.1,3,1.1"/>
    <text class="st4" transform="translate(43.6 23.7)"><tspan x="0" y="0">LIS</tspan></text>
  </g>
</svg>