<?xml version="1.0" encoding="UTF-8"?>
<svg id="Layer_1" xmlns="http://www.w3.org/2000/svg" version="1.1" viewBox="0 0 80 80">
  <!-- Generator: Adobe Illustrator 29.1.0, SVG Export Plug-In . SVG Version: 2.1.0 Build 142)  -->
  <defs>
    <style>
      .st0 {
        fill: #d55e00;
      }

      .st1, .st2 {
        fill: #fff;
      }

      .st3 {
        fill: none;
        stroke: #ffb888;
        stroke-miterlimit: 10;
      }

      .st2 {
        isolation: isolate;
        opacity: 1;
      }
    </style>
  </defs>
  <rect class="st0" width="80" height="80" rx="14" ry="14"/>
  <rect class="st3" x="6" y="6" width="68" height="68" rx="10" ry="10"/>
  <path class="st1" d="M61.6,18.3c-.1,0-.2-.1-.4-.1h0s-24.1,0-24.1,0c-.4,0-.6.3-.6.6v8c-2.2.1-3.9,2-3.9,4.1s1.7,4,3.9,4.1v1.9l-.3-.7c-.5-1.1-1.4-1.9-2.6-2.2l-7.4-2.2c-.6-.2-1.3,0-1.8.3l-5.9,3.8c-.8.5-1.1,1.7-.6,2.5h0c.5.9,1.6,1.2,2.5.7l5-2.8,3,.9-6.2,9.1-2.4,3.6-6.9.5c-.6,0-1.2.3-1.7.8-.4.5-.6,1.1-.6,1.8h0c0,.7.3,1.3.8,1.7.5.4,1.1.6,1.8.6l8.2-.5c.7,0,1.3-.4,1.7-1l2.9-4.3,4.7,2.9-2.9,7.8c-.5,1.3.2,2.7,1.4,3.1h0c.3.1.6.2.8.2,1,0,1.9-.6,2.3-1.6l3.7-9.9c.4-1,0-2.1-.9-2.7l-4.9-3,3.4-5,1.5,3.1c.3.6.8,1,1.4,1.2v17.3c0,.4.3.6.6.6h9.6v5.3c0,.2.1.4.3.5.1,0,.2.1.4.1s.2,0,.3,0l13.9-5.9c.2-.1.4-.3.4-.6V18.8c0-.2-.1-.4-.3-.5ZM33.9,31c0-1.6,1.3-2.9,2.9-2.9s2.9,1.3,2.9,2.9-1.3,2.9-2.9,2.9-2.9-1.3-2.9-2.9ZM36.2,44l-2-4.1c0-.2-.3-.3-.5-.4-.2,0-.4,0-.6.3l-4.4,6.5c0,.1-.1.3,0,.5,0,.2.1.3.3.4l5.4,3.4c.4.2.6.7.4,1.1,0,0,0,0,0,0l-3.7,9.9c-.2.6-.9.9-1.5.7h0c-.6-.2-.9-.9-.7-1.5l3.1-8.3c.1-.3,0-.6-.3-.8l-5.7-3.5c-.1,0-.2,0-.3,0-.2,0-.4,0-.5.3l-3.3,4.8c-.2.3-.4.4-.7.4l-8.2.5c-.6,0-1.2-.4-1.2-1.1h0c0-.4,0-.7.3-.9.2-.2.5-.4.8-.4l7.2-.5c.2,0,.4-.1.5-.3l2.6-3.9,6.7-9.8c.1-.2.1-.4,0-.6,0-.2-.2-.3-.4-.4l-4.1-1.2c-.2,0-.3,0-.5,0l-5.2,2.9c-.3.2-.6,0-.8-.2h0c-.2-.3,0-.6.2-.8l5.9-3.8c.2-.2.5-.2.8-.1l7.4,2.2c.8.2,1.4.8,1.8,1.5l2.8,5.9c0,.2.3.3.5.4l4.7.6c.3,0,.5.3.5.6h0c0,.3-.3.6-.6.6l-5.9-.4c-.4,0-.6-.2-.8-.5ZM47.1,24.1c-.2.1-.4.3-.4.6v37.6h-8.9v-16.5l5.1.4c1,0,1.9-.7,2-1.7h0c0-1-.6-1.9-1.6-2.1l-4.4-.6-1.1-2.3v-4.6c1.8-.4,3.2-2.1,3.2-4s-1.4-3.6-3.2-4v-7.5h20.3l-11,4.7ZM60.6,62.6l-12.6,5.4V25.1l12.6-5.4v42.8ZM14.8,24.5c0-.4.3-.6.6-.6h10.3l-2.3-2.3c-.2-.2-.2-.7,0-.9.2-.2.7-.2.9,0l3.4,3.4c.2.2.2.7,0,.9l-3.4,3.4c-.1.1-.3.2-.5.2s-.3,0-.5-.2c-.2-.2-.2-.7,0-.9l2.3-2.3h-10.3c-.4,0-.6-.3-.6-.6Z"/>
  <g>
    <polygon class="st2" points="60 10 70 28 50 28 60 10"/>
    <path class="st0" d="M60,15h0c.6,0,1,.4,1,1v5c0,.6-.4,1-1,1h0c-.6,0-1-.4-1-1v-5c0-.6.4-1,1-1Z"/>
    <circle class="st0" cx="60" cy="24" r="1.2"/>
  </g>
</svg>