<?xml version="1.0" encoding="UTF-8"?>
<svg id="Layer_1" xmlns="http://www.w3.org/2000/svg" version="1.1" viewBox="0 0 80 80">
  <!-- Generator: Adobe Illustrator 29.1.0, SVG Export Plug-In . SVG Version: 2.1.0 Build 142)  -->
  <defs>
    <style>
      .st0, .st1 {
        stroke: #fff;
        stroke-linecap: round;
        stroke-width: 2.8px;
      }

      .st0, .st1, .st2 {
        fill: none;
      }

      .st3 {
        fill: #fff;
        fill-rule: evenodd;
      }

      .st4 {
        fill: #d55e00;
      }

      .st1 {
        stroke-linejoin: round;
      }

      .st2 {
        stroke: #ffb888;
        stroke-miterlimit: 10;
      }
    </style>
  </defs>
  <rect class="st4" width="80" height="80" rx="14" ry="14"/>
  <rect class="st2" x="6" y="6" width="68" height="68" rx="10" ry="10"/>
  <g>
    <path class="st3" d="M36.2,52.8v-6.8c0-.9-.1-1,.3-1,.2.2,0,.1,0,.4,0,.3,0,.2,0,.5.1,2.2-.2,7,0,8.8.8.3,4.1.1,5.1,0,.3,0,1.3.1,1.4,0,.4-.8-.2-9.2.2-9.8.4.1.3.5.3,1.7v6c0,1.4-.2,2.5.9,3.1.8.4,2.2,0,2.2-1.6v-10c0-1.1-.3-2.4-1.4-2.7-.6-.2-1,0-1.6,0h-8.4c-.2,0-1.1-.3-1.8.9-.5.9-.4,1.4-.4,2.5v8.7c0,1.1,0,1.7.8,2.2.8.4,1.6,0,2-.5.3-.5.3-1.8.3-2.4h0Z"/>
    <path class="st3" d="M44.4,40.8c1.3.3,1.4,0,2.1,1.1.9,1.3.6,4,.6,6v2.5c0,.3,0,.5.2.6.2-1.3,0-9.8.2-10,.1,0,0,0,.2,0,.3,0,0,0,.2.1.2.4-.3,9.5.2,9.9,0,0-.2.1.7.1h4.2c.3,0,.6,0,.8,0,1.2,0,.9.3.9-5.1v-4.9c.1-.3,0,0,.1-.2.3.4,0,8,.1,9.5,0,2.4,3.4,2.2,3.2-.3v-2.3c0-1.5,0-8.1-.1-8.8-.2-.8-.7-2-1.7-2h-10.1c-1.6,0-2.2,2.2-1.8,3.7h0Z"/>
    <path class="st3" d="M25.1,40.9c.7,0,.3.5.4,1.1v8.6c0,.7.5.4,1.2.4h5.2c.5,0,.3-.5.3-1.4,0-1.5-.2-8.3.1-8.8,0,0,0,0,.1.1.2.4-.1.9.2,1.7.7-.6.1-.5,1-1.3.6-.5,1-.4,1.9-.5.5-.7.2-3.6-1.8-3.8h-8.8c-1.2,0-1.6-.2-2.3.6-1,1.1-.7,3.3-.7,5.2s0,4,0,6c0,.8-.2,2,.3,2.7.2.2,0,0,.2.2,1,.8,2.6.5,2.6-1.8,0-1.6-.1-8.4,0-9h0Z"/>
    <path class="st3" d="M55.1,32.4c0-1.6-.6-2.8-2.1-3.5-3.5-1.6-6.5,2.5-4.8,5,.5.7.8,1.2,1.8,1.6.9.3,1.6.5,2.7,0,1.2-.5,2.3-1.8,2.3-3.1h0Z"/>
    <path class="st3" d="M36.3,36.2c0,1.2.2,1.8,1.1,2.8.3.3.4.4.9.7,2.4,1.3,5.4-.4,5.4-3.3s-2.8-4.2-5-3.3l-.8.4c-.8.5-1.5,1.6-1.5,2.6h0Z"/>
    <path class="st3" d="M25.2,32.1c0,2.8,3.7,5,6.3,2.5,2-1.9,1.1-4.8-.9-5.8-2.2-1-4.5.1-5.1,2.1,0,.1,0,.2-.1.3,0,.2-.1.6-.1.8h0Z"/>
    <path class="st3" d="M39.8,31.3c1.1,0,2.2-.5,2.8-1.1,1.5-1.4,1.5-3.6,0-5-.3-.3-.5-.5-1-.7-.8-.4-1.9-.6-2.8-.2-.6.2-1,.3-1.6,1-1.5,1.6-1.3,4.5,1.2,5.7.2.1,1.1.4,1.4.4h0Z"/>
  </g>
  <g>
    <path class="st0" d="M13.2,12.5l11.2,11.2"/>
    <path class="st1" d="M24.4,16.2v7.5h-7.5"/>
    <path class="st0" d="M66.4,67.4l-11.2-11.2"/>
    <path class="st1" d="M55.2,63.7v-7.5h7.5"/>
  </g>
  <g>
    <path class="st0" d="M67.5,13.4l-11.2,11.2"/>
    <path class="st1" d="M63.7,24.6h-7.5v-7.5"/>
    <path class="st0" d="M12.5,66.6l11.2-11.2"/>
    <path class="st1" d="M16.3,55.4h7.5v7.5"/>
  </g>
</svg>