<?xml version="1.0" encoding="UTF-8"?>
<svg id="Layer_1" xmlns="http://www.w3.org/2000/svg" version="1.1" viewBox="0 0 80 80">
  <!-- Generator: Adobe Illustrator 29.1.0, SVG Export Plug-In . SVG Version: 2.1.0 Build 142)  -->
  <defs>
    <style>
      .st0 {
        fill: #d55e00;
      }

      .st1 {
        fill: #fefefe;
      }

      .st2 {
        fill: none;
        stroke: #ffb888;
        stroke-miterlimit: 10;
      }
    </style>
  </defs>
  <rect class="st0" width="80" height="80" rx="14" ry="14"/>
  <rect class="st2" x="6" y="6" width="68" height="68" rx="10" ry="10"/>
  <g>
    <path class="st1" d="M65.9,17.5h-4.8v-4.8c0-.1-.1-.3-.3-.3h-4.5c-.1,0-.3.1-.3.3v4.8h-4.8c-.1,0-.3.1-.3.3v4.5c0,.1.1.3.3.3h4.8v4.8c0,.1.1.3.3.3h4.5c.1,0,.3-.1.3-.3v-4.8h4.8c.1,0,.3-.1.3-.3v-4.5c0-.1-.1-.3-.3-.3Z"/>
    <path class="st1" d="M58.7,40.4c0-1.4-.3-2.7-.7-4-.2-.6-.4-1.1-.7-1.6-1.2-2.2-3-4.1-5.3-5.3-8.4-4.4-15.2,3.9-15.7,4.4-.4-.5-7.2-8.8-15.7-4.4-2.3,1.2-4.2,3.1-5.3,5.3-.3.5-.5,1.1-.7,1.6-.5,1.3-.7,2.6-.7,4,0,.3,0,.6,0,.9,0,.4,0,.8,0,1.3.5,4.6,2.9,8.5,5.8,11.9.1.2.3.3.4.5,1.6,1.8,3.7,3.9,6.5,6.1,0,0,0,0,.1,0,2.6,2.1,5.7,4.2,9.5,6.5,3.8-2.2,6.9-4.4,9.5-6.5,0,0,0,0,.1,0,2.7-2.2,4.8-4.3,6.5-6.1.2-.2.3-.3.4-.5,2.9-3.4,5.3-7.3,5.8-11.9,0-.4,0-.9,0-1.3,0-.3,0-.6,0-.9ZM31.8,59.7l3.8-10h-6.3l11.4-13.7-3.8,10h6.3l-11.4,13.7Z"/>
  </g>
</svg>