<?xml version="1.0" encoding="UTF-8"?><svg id="_05_Scale" xmlns="http://www.w3.org/2000/svg" viewBox="0 0 512 512"><g id="Bordo_Orientamento"><path d="M435,20c31.4,0,57,25.6,57,57v358c0,31.4-25.6,57-57,57H77c-31.4,0-57-25.6-57-57V77c0-31.4,25.6-57,57-57h358M435,0H77C34.5,0,0,34.5,0,77v358c0,42.5,34.5,77,77,77h358c42.5,0,77-34.5,77-77V77c0-42.5-34.5-77-77-77h0Z" fill="#0072b2"/></g><polygon points="86.7 435 86.7 377.5 175.7 377.5 175.7 325.1 264.7 325.1 264.7 267.7 355 267.7 355 212.8 435.8 212.8 435.8 435 86.7 435" fill="#d6d6d6"/><polyline points="172.5 372.3 86.7 372.3 86.7 425.5" fill="none" stroke="#000" stroke-linecap="round" stroke-linejoin="round" stroke-width="20"/><polyline points="172.5 372.3 172.5 319.2 219.4 319.2 258.3 319.2" fill="none" stroke="#000" stroke-linecap="round" stroke-linejoin="round" stroke-width="20"/><polyline points="259.7 319.2 259.7 266 306.5 266 345.5 266" fill="none" stroke="#000" stroke-linecap="round" stroke-linejoin="round" stroke-width="20"/><polyline points="345.5 266 345.5 212.8 389.6 212.8 426.1 212.8" fill="none" stroke="#000" stroke-linecap="round" stroke-linejoin="round" stroke-width="19.4"/><path d="M210.7,139.7l-32.1-33.3s0,0-.1-.1c0,0-.2-.2-.3-.2,0,0-.1-.1-.2-.2,0,0-.2-.1-.3-.2,0,0-.2-.1-.2-.2,0,0-.2-.1-.3-.2,0,0-.2-.1-.3-.2,0,0-.2-.1-.3-.2,0,0-.2-.1-.3-.2,0,0-.2,0-.3-.1-.1,0-.2,0-.3-.1,0,0-.1,0-.2,0,0,0,0,0,0,0-.1,0-.2,0-.3-.1,0,0-.2,0-.3,0-.1,0-.2,0-.3,0,0,0-.2,0-.3,0-.1,0-.2,0-.3,0-.1,0-.2,0-.3,0-.1,0-.2,0-.3,0-.1,0-.2,0-.3,0-.1,0-.2,0-.3,0-.1,0-.2,0-.3,0-.1,0-.2,0-.3,0,0,0-.2,0-.3,0-.1,0-.2,0-.3,0,0,0-.2,0-.3,0-.1,0-.2,0-.3,0,0,0-.2,0-.3,0-.1,0-.2,0-.3,0-.1,0-.2,0-.3,0,0,0-.2,0-.3,0-.1,0-.2,0-.3.1,0,0,0,0-.1,0,0,0-.1,0-.2,0-.1,0-.2,0-.3.1,0,0-.2,0-.3.1,0,0-.2.1-.3.2,0,0-.2.1-.3.2,0,0-.2.1-.3.2,0,0-.2.1-.3.2,0,0-.2.1-.2.2,0,0-.2.1-.3.2,0,0-.2.1-.2.2,0,0-.2.2-.2.2,0,0,0,0-.1.1l-32.1,33.3c-3.2,3.4-3.1,8.7.2,11.9,3.3,3.2,8.7,3.1,11.9-.2l17.6-18.3v125.9c0,4.7,3.8,8.4,8.4,8.4s8.4-3.8,8.4-8.4v-125.9l17.6,18.3c3.2,3.4,8.6,3.4,11.9.2,3.4-3.2,3.4-8.6.2-11.9Z" fill="#009e73"/></svg>