<?xml version="1.0" encoding="UTF-8"?><svg id="_03_Direzione_percorso" xmlns="http://www.w3.org/2000/svg" viewBox="0 0 512 512"><g id="Bordo_Orientamento"><path d="M435,20c31.4,0,57,25.6,57,57v358c0,31.4-25.6,57-57,57H77c-31.4,0-57-25.6-57-57V77c0-31.4,25.6-57,57-57h358M435,0H77C34.5,0,0,34.5,0,77v358c0,42.5,34.5,77,77,77h358c42.5,0,77-34.5,77-77V77c0-42.5-34.5-77-77-77h0Z" fill="#0072b2"/></g><path d="M353.3,273.1c15.7-1.1,26.2,14.4,27.5,16.3,6.1,9.2,6,18.4,5.6,34-.2,10.3-.8,26.5-8.8,45.7-6.2,14.7-13.2,31.4-28.2,35.4-2.9.8-11.2,2.5-19.5-2.1-1.1-.6-10.9-6.1-12.3-15.8-1.8-11.9,11.2-15.3,15-33.5,1.9-8.8.6-16.5-.7-24.7-2.4-15.2-6.3-16.3-5.9-24.4.6-13,11.8-29.8,27.3-30.9Z"/><circle cx="326.3" cy="269.5" r="12.7"/><circle cx="350.4" cy="263.2" r="7.6"/><circle cx="368.1" cy="266.9" r="6.6"/><circle cx="382.2" cy="277.3" r="6.6"/><circle cx="389.8" cy="291.2" r="5.1"/><polyline points="255.8 424.9 255.8 86.5 293.9 126.1" fill="none" stroke="#009e73" stroke-linecap="round" stroke-linejoin="round" stroke-width="20"/><polyline points="254.6 424.9 254.6 86.5 216.5 126.1" fill="none" stroke="#009e73" stroke-linecap="round" stroke-linejoin="round" stroke-width="20"/><path d="M154.5,191.2c-15.7-1.1-26.2,14.4-27.5,16.3-6.1,9.2-6,18.4-5.6,34,.2,10.3.8,26.5,8.8,45.7,6.2,14.7,13.2,31.4,28.2,35.4,2.9.8,11.2,2.5,19.5-2.1,1.1-.6,10.9-6.1,12.3-15.8,1.8-11.9-11.2-15.3-15-33.5-1.9-8.8-.6-16.5.7-24.7,2.4-15.2,6.3-16.3,5.9-24.4-.6-13-11.8-29.8-27.3-30.9Z"/><circle cx="181.5" cy="187.6" r="12.7"/><circle cx="157.4" cy="181.3" r="7.6"/><circle cx="139.7" cy="185" r="6.6"/><circle cx="125.6" cy="195.4" r="6.6"/><circle cx="118" cy="209.3" r="5.1"/></svg>