<?xml version="1.0" encoding="UTF-8"?><svg id="a" xmlns="http://www.w3.org/2000/svg" width="32" height="32" viewBox="0 0 32 32"><g id="b"><rect x=".75" y=".75" width="30.49" height="30.49" rx="4.52" ry="4.52" fill="#0072b2"/></g><g id="c"><path d="M27.2,1.22c1.98,0,3.58,1.6,3.58,3.58v22.4c0,1.98-1.6,3.58-3.58,3.58H4.8c-1.98,0-3.58-1.6-3.58-3.58V4.8c0-1.98,1.6-3.58,3.58-3.58h22.4M27.2,0H4.8C2.16,0,0,2.16,0,4.8v22.4c0,2.64,2.16,4.8,4.8,4.8h22.4c2.64,0,4.8-2.16,4.8-4.8V4.8c0-2.64-2.16-4.8-4.8-4.8h0Z" fill="#0072b2"/></g><g isolation="isolate"><g isolation="isolate"><path d="M7.52,21.08v-7.78l1.25.03-3.48,4.26-.33-.41h6.38v1.92H3.92l-.93-1.8,4.91-5.92h1.88v9.7h-2.25Z" fill="#fff"/><path d="M15.49,21.21c-.61,0-1.16-.16-1.64-.49s-.86-.77-1.15-1.35c-.28-.57-.43-1.22-.43-1.94s.14-1.4.43-1.96c.28-.57.67-1.01,1.17-1.34s1.06-.49,1.69-.49c.35,0,.67.05.95.15.29.1.54.24.76.42.22.18.41.38.56.62.16.23.27.48.34.75l-.45-.05v-1.73h2.19v7.3h-2.23v-1.76h.49c-.07.24-.19.49-.36.71-.16.23-.37.43-.6.6-.24.17-.5.31-.8.41-.29.1-.6.15-.93.15ZM16.1,19.35c.34,0,.63-.08.88-.23.25-.16.44-.38.58-.67.14-.29.21-.63.21-1.02s-.07-.73-.21-1.02-.33-.51-.58-.67c-.25-.16-.54-.24-.88-.24s-.62.08-.86.24-.43.38-.57.67c-.14.29-.21.63-.21,1.02s.07.74.21,1.02c.14.29.33.51.57.67.24.16.53.23.86.23Z" fill="#fff"/><path d="M21.87,21.08v-10.17h2.2v10.17h-2.2Z" fill="#fff"/><path d="M26.05,21.08v-10.17h2.2v10.17h-2.2Z" fill="#fff"/></g></g></svg>