<?xml version="1.0" encoding="UTF-8"?><svg id="a" xmlns="http://www.w3.org/2000/svg" width="32" height="32" viewBox="0 0 32 32"><g id="b"><rect x="0" y="0" width="31" height="31" rx="5" ry="5" fill="#0072b2"/></g><g id="c"><path d="M27,1c2,0,4,2,4,4v22c0,2-2,4-4,4H5c-2,0-4-2-4-4V5c0-2,2-4,4-4h22M27,0H5C2,0,0,2,0,5v22c0,3,2,5,5,5h22c3,0,5-2,5-5V5c0-3-2-5-5-5h0Z" fill="#0072b2"/></g><rect x="0" y="6" width="3" height="2" fill="none"/><path d="M8,21v-8h1s-3,4-3,4h0s6,0,6,0v2H4v-2c0,0,4-6,4-6h2v1h-2Z" fill="#fff"/><path d="M16,21c0,0-1,0-2,0,0,0,0,0-1-1,0,0,0-1,0-2s0-1,0-2c0,0,0-1,1-1,0,0,1,0,2,0s0,0,0,0c0,0,0,0,0,0,0,0,0,0,0,0s0,0,0,0h0v-2h2v7h-2v-2h0s0,0,0,0,0,0,0,0c0,0,0,0,0,0s0,0,0,0ZM16,19s0,0,0,0c0,0,0,0,0,0,0,0,0,0,0-1s0,0,0-1c0,0,0,0,0,0,0,0,0,0,0,0s0,0,0,0c0,0,0,0,0,0,0,0,0,0,0,1s0,0,0,1c0,0,0,0,0,0,0,0,0,0,0,0Z" fill="#fff"/><path d="M22,21v-1h2v1h-2Z" fill="#fff"/><path d="M26,21v-1h2v1h-2Z" fill="#fff"/></svg>