<?xml version="1.0" encoding="UTF-8"?><svg id="a" xmlns="http://www.w3.org/2000/svg" width="34" height="34" viewBox="0 0 34 34"><g id="b"><rect x=".8" y=".8" width="32.4" height="32.4" rx="4.8" ry="4.8" fill="#0072b2"/></g><g id="c"><path d="M28.9,1.3c2.1,0,3.8,1.7,3.8,3.8v23.8c0,2.1-1.7,3.8-3.8,3.8H5.1c-2.1,0-3.8-1.7-3.8-3.8V5.1c0-2.1,1.7-3.8,3.8-3.8h23.8M28.9,0H5.1C2.3,0,0,2.3,0,5.1v23.8c0,2.8,2.3,5.1,5.1,5.1h23.8c2.8,0,5.1-2.3,5.1-5.1V5.1c0-2.8-2.3-5.1-5.1-5.1h0Z" fill="#0072b2"/></g><g isolation="isolate"><g isolation="isolate"><path d="M8,22.4v-8.26l1.33.03-3.69,4.53-.35-.44h6.77v2.04h-7.88l-.99-1.91,5.21-6.29h2v10.31h-2.39Z" fill="#fff"/><path d="M16.46,22.53c-.65,0-1.23-.17-1.75-.52-.51-.35-.92-.82-1.22-1.43-.3-.61-.45-1.3-.45-2.07s.15-1.48.45-2.09c.3-.6.72-1.08,1.24-1.42.53-.35,1.12-.52,1.8-.52.37,0,.71.05,1.01.16.31.11.58.26.81.45.23.19.43.41.6.66.17.25.29.51.37.8l-.48-.06v-1.84h2.32v7.75h-2.37v-1.87h.53c-.08.26-.21.52-.38.76s-.39.46-.64.64c-.25.18-.54.33-.85.44-.31.11-.64.16-.99.16ZM17.11,20.56c.36,0,.67-.08.93-.25.26-.17.47-.4.61-.71.15-.31.22-.67.22-1.09s-.07-.78-.22-1.09c-.15-.31-.35-.54-.61-.71s-.57-.26-.93-.26-.65.09-.91.26-.46.41-.61.71-.22.67-.22,1.09.07.78.22,1.09.35.54.61.71c.26.17.56.25.91.25Z" fill="#fff"/><path d="M23.24,22.4v-10.8h2.34v10.8h-2.34Z" fill="#fff"/><path d="M27.68,22.4v-10.8h2.34v10.8h-2.34Z" fill="#fff"/></g></g></svg>