<?xml version="1.0" encoding="UTF-8"?><svg id="a" xmlns="http://www.w3.org/2000/svg" width="34" height="34" viewBox="0 0 34 34"><g id="b"><rect x="0" y="0" width="32" height="32" rx="5" ry="5" fill="#0072b2"/></g><g id="c"><path d="M29,1c2,0,4,2,4,4v24c0,2-2,4-4,4H5c-2,0-4-2-4-4V5c0-2,2-4,4-4h24M29,0H5C2,0,0,2,0,5v24c0,3,2,5,5,5h24c3,0,5-2,5-5V5c0-3-2-5-5-5h0Z" fill="#0072b2"/></g><rect x="1" y="6" width="32" height="21" fill="none"/><path d="M8,22v-8h1s-4,5-4,5h0s7,0,7,0v2h-8v-2c0,0,4-6,4-6h2v1h-2Z" fill="#fff"/><path d="M16,23c0,0-1,0-2,0s0,0-1-1c0,0,0-1,0-2s0-1,0-2c0,0,0-1,1-1s1,0,2,0,0,0,1,0c0,0,0,0,0,0s0,0,0,0c0,0,0,0,0,0h0v-2h2v8h-2v-2h0s0,0,0,0c0,0,0,0,0,0,0,0,0,0,0,0,0,0,0,0,0,0ZM17,21s0,0,0,0c0,0,0,0,0,0,0,0,0,0,0-1s0,0,0-1c0,0,0,0,0,0s0,0,0,0,0,0,0,0c0,0,0,0,0,0,0,0,0,0,0,1s0,0,0,1c0,0,0,0,0,0,0,0,0,0,0,0Z" fill="#fff"/><path d="M23,22v-11h2v11h-2Z" fill="#fff"/><path d="M28,22v-11h2v11h-2Z" fill="#fff"/></svg>